<svg xmlns="http://www.w3.org/2000/svg" xmlns:xlink="http://www.w3.org/1999/xlink" width="500" height="500" preserveAspectRatio="xMidYMid meet" version="1.2" viewBox="0 0 375 375" zoomAndPan="magnify"><defs><clipPath id="clip1" xml:id="clip1"><path d="M 152 183 L 187.429688 183 L 187.429688 225 L 152 225 Z M 152 183"/></clipPath><clipPath id="clip2" xml:id="clip2"><path d="M 31 63.503906 L 95 63.503906 L 95 156 L 31 156 Z M 31 63.503906"/></clipPath></defs><g id="surface1" xml:id="surface1"><path style="stroke:none;fill-rule:nonzero;fill:#340f0a;fill-opacity:1" d="M 167.660156 214.125 C 163.535156 213.089844 159.355469 215.601562 158.320312 219.730469 C 157.289062 223.859375 159.792969 228.046875 163.917969 229.082031 C 168.039062 230.117188 172.21875 227.605469 173.253906 223.480469 C 174.285156 219.347656 171.78125 215.160156 167.660156 214.125"/><g clip-path="url(#clip1)" clip-rule="nonzero"><path style="stroke:none;fill-rule:nonzero;fill:#340f0a;fill-opacity:1" d="M 170.933594 224.289062 C 171.125 224.210938 175.046875 222.746094 179.113281 219.273438 C 181.144531 217.53125 183.214844 215.273438 184.796875 212.402344 C 186.375 209.53125 187.441406 206.03125 187.4375 202.007812 C 187.4375 201.671875 187.429688 201.332031 187.417969 200.996094 L 187.417969 200.992188 C 187.292969 198.09375 186.4375 195.453125 185.078125 193.207031 C 184.0625 191.523438 182.777344 190.054688 181.324219 188.804688 C 179.148438 186.929688 176.601562 185.539062 173.941406 184.601562 C 171.277344 183.667969 168.492188 183.183594 165.785156 183.179688 C 163.238281 183.183594 160.757812 183.609375 158.515625 184.578125 C 157.398438 185.066406 156.34375 185.6875 155.398438 186.476562 C 154.453125 187.261719 153.621094 188.210938 152.96875 189.304688 L 157.882812 192.246094 C 158.1875 191.734375 158.570312 191.289062 159.054688 190.886719 C 159.777344 190.285156 160.730469 189.785156 161.878906 189.441406 C 163.027344 189.097656 164.363281 188.914062 165.785156 188.914062 C 167.578125 188.914062 169.503906 189.207031 171.351562 189.78125 C 174.136719 190.640625 176.734375 192.140625 178.578125 194.085938 C 179.503906 195.058594 180.25 196.136719 180.78125 197.316406 C 181.3125 198.5 181.636719 199.789062 181.699219 201.238281 L 181.699219 201.234375 C 181.710938 201.5 181.714844 201.757812 181.714844 202.007812 C 181.710938 205.035156 180.945312 207.507812 179.78125 209.636719 C 178.90625 211.230469 177.796875 212.617188 176.601562 213.800781 C 174.820312 215.578125 172.851562 216.890625 171.351562 217.730469 C 170.601562 218.15625 169.96875 218.460938 169.535156 218.660156 C 169.320312 218.757812 169.15625 218.828125 169.050781 218.871094 L 168.941406 218.914062 L 168.921875 218.925781 L 169.273438 219.847656 L 168.925781 218.917969 L 168.921875 218.925781 L 169.273438 219.847656 L 168.925781 218.917969 L 170.933594 224.289062"/></g><path style="stroke:none;fill-rule:nonzero;fill:#340f0a;fill-opacity:1" d="M 38.511719 218.917969 L 38.09375 220.027344 L 38.515625 218.925781 L 38.511719 218.917969 L 38.09375 220.027344 L 38.515625 218.925781 C 38.484375 218.917969 35.09375 217.582031 31.890625 214.78125 C 30.285156 213.382812 28.734375 211.636719 27.601562 209.535156 C 26.46875 207.429688 25.726562 204.984375 25.722656 202.007812 C 25.722656 201.753906 25.726562 201.5 25.738281 201.242188 L 25.738281 201.238281 C 25.824219 199.308594 26.367188 197.652344 27.257812 196.167969 C 27.929688 195.058594 28.804688 194.046875 29.839844 193.148438 C 31.398438 191.808594 33.332031 190.734375 35.394531 190.011719 C 37.453125 189.285156 39.636719 188.914062 41.652344 188.914062 C 43.550781 188.910156 45.289062 189.246094 46.640625 189.839844 C 47.320312 190.128906 47.902344 190.484375 48.382812 190.886719 C 48.867188 191.289062 49.25 191.734375 49.554688 192.246094 L 54.46875 189.304688 C 53.816406 188.210938 52.984375 187.261719 52.039062 186.476562 C 50.621094 185.296875 48.960938 184.480469 47.199219 183.949219 C 45.433594 183.425781 43.5625 183.179688 41.652344 183.179688 C 39.246094 183.183594 36.78125 183.566406 34.390625 184.308594 C 30.8125 185.421875 27.382812 187.339844 24.71875 190.125 C 23.390625 191.519531 22.257812 193.136719 21.4375 194.964844 C 20.617188 196.789062 20.113281 198.820312 20.019531 200.992188 L 20.019531 200.988281 C 20.007812 201.332031 20 201.671875 20 202.007812 C 19.996094 206.03125 21.058594 209.53125 22.640625 212.398438 C 23.824219 214.554688 25.289062 216.363281 26.800781 217.867188 C 29.070312 220.121094 31.449219 221.695312 33.277344 222.730469 C 35.109375 223.761719 36.398438 224.246094 36.503906 224.289062 L 38.511719 218.921875"/><path style="stroke:none;fill-rule:nonzero;fill:#340f0a;fill-opacity:1" d="M 78.40625 238.234375 C 78.339844 238.359375 77.1875 240.527344 76.039062 244.21875 C 74.890625 247.910156 73.75 253.128906 73.75 259.34375 C 73.75 263.84375 74.351562 268.867188 75.984375 274.175781 L 81.453125 272.484375 C 80.003906 267.773438 79.476562 263.335938 79.472656 259.34375 C 79.472656 253.835938 80.492188 249.179688 81.5 245.925781 C 82.007812 244.296875 82.511719 243.019531 82.878906 242.167969 C 83.066406 241.742188 83.214844 241.421875 83.316406 241.214844 C 83.363281 241.113281 83.402344 241.039062 83.425781 240.992188 L 83.449219 240.949219 L 83.328125 240.886719 L 83.449219 240.949219 L 83.328125 240.886719 L 83.449219 240.949219 L 78.40625 238.234375"/><path style="stroke:none;fill-rule:nonzero;fill:#340f0a;fill-opacity:1" d="M 84.472656 278.511719 C 84.472656 278.511719 65.601562 288.402344 59.226562 281.648438 C 52.855469 274.898438 63.726562 271.285156 71.851562 271.601562 C 79.972656 271.917969 92.070312 275.261719 84.472656 278.511719"/><path style="stroke:none;fill-rule:nonzero;fill:#340f0a;fill-opacity:1" d="M 126.390625 238.234375 C 126.324219 238.359375 125.164062 240.527344 124.019531 244.21875 C 122.871094 247.910156 121.730469 253.128906 121.730469 259.34375 C 121.730469 263.84375 122.332031 268.867188 123.964844 274.175781 L 129.433594 272.484375 C 127.984375 267.773438 127.453125 263.335938 127.453125 259.34375 C 127.453125 253.835938 128.46875 249.179688 129.484375 245.925781 C 129.988281 244.296875 130.492188 243.019531 130.863281 242.167969 C 131.042969 241.742188 131.195312 241.421875 131.296875 241.214844 C 131.347656 241.113281 131.382812 241.039062 131.40625 240.996094 L 131.429688 240.949219 L 131.308594 240.886719 L 131.429688 240.949219 L 131.308594 240.886719 L 131.429688 240.949219 L 126.390625 238.234375"/><path style="stroke:none;fill-rule:nonzero;fill:#340f0a;fill-opacity:1" d="M 132.453125 278.511719 C 132.453125 278.511719 113.582031 288.402344 107.207031 281.648438 C 100.832031 274.898438 111.707031 271.285156 119.832031 271.601562 C 127.953125 271.917969 140.054688 275.261719 132.453125 278.511719"/><path style="stroke:none;fill-rule:nonzero;fill:#f591aa;fill-opacity:1" d="M 101.179688 234.003906 C 91.109375 250.1875 65.433594 254.300781 53.652344 237.59375 C 49.679688 231.960938 47.570312 223.714844 46.800781 216.945312 C 45.066406 201.675781 49.304688 184.996094 55.5625 171.53125 C 60.964844 159.902344 70.410156 143.585938 83.144531 140.914062 C 86.304688 140.25 89.429688 140.722656 92.425781 141.953125 C 96.761719 143.730469 101.238281 145.234375 102.417969 150.566406 C 103.960938 157.542969 104.222656 165.246094 103.351562 172.332031 C 102.449219 179.675781 103.78125 187.160156 104.289062 194.480469 C 105.09375 206.03125 107.816406 218.230469 103.46875 229.429688 C 102.84375 231.042969 102.074219 232.574219 101.179688 234.003906"/><path style="stroke:none;fill-rule:nonzero;fill:#b14264;fill-opacity:1" d="M 101.179688 234.003906 L 99.800781 233.140625 C 97.15625 237.386719 93.355469 240.773438 88.988281 243.09375 C 84.628906 245.417969 79.710938 246.667969 74.886719 246.667969 C 71.0625 246.667969 67.296875 245.882812 63.894531 244.246094 C 60.484375 242.605469 57.429688 240.121094 54.980469 236.652344 C 53.132812 234.035156 51.664062 230.707031 50.582031 227.210938 C 49.496094 223.714844 48.792969 220.054688 48.421875 216.757812 C 48.160156 214.488281 48.039062 212.183594 48.039062 209.855469 C 48.03125 196.964844 51.816406 183.445312 57.039062 172.21875 C 59.707031 166.46875 63.378906 159.582031 67.882812 153.875 C 70.132812 151.023438 72.589844 148.46875 75.203125 146.492188 C 77.820312 144.511719 80.582031 143.117188 83.476562 142.507812 C 84.339844 142.328125 85.195312 142.242188 86.046875 142.242188 C 87.96875 142.242188 89.890625 142.675781 91.808594 143.460938 C 94.011719 144.359375 96.105469 145.160156 97.671875 146.265625 C 98.460938 146.816406 99.117188 147.429688 99.640625 148.167969 C 100.164062 148.910156 100.574219 149.785156 100.828125 150.917969 C 101.765625 155.140625 102.214844 159.667969 102.214844 164.15625 C 102.214844 166.855469 102.050781 169.539062 101.734375 172.132812 C 101.503906 173.988281 101.414062 175.839844 101.414062 177.683594 C 101.417969 183.453125 102.289062 189.132812 102.664062 194.59375 C 103.144531 201.402344 104.246094 208.292969 104.242188 214.945312 C 104.242188 219.742188 103.675781 224.394531 101.953125 228.835938 C 101.363281 230.355469 100.640625 231.792969 99.800781 233.140625 L 102.5625 234.871094 C 103.511719 233.351562 104.328125 231.734375 104.988281 230.019531 C 106.90625 225.078125 107.5 219.992188 107.5 214.945312 C 107.496094 207.945312 106.371094 200.976562 105.914062 194.367188 C 105.519531 188.726562 104.667969 183.121094 104.671875 177.683594 C 104.671875 175.949219 104.757812 174.230469 104.964844 172.53125 C 105.300781 169.800781 105.472656 166.988281 105.472656 164.15625 C 105.472656 159.453125 105 154.699219 104.007812 150.214844 C 103.671875 148.683594 103.078125 147.371094 102.292969 146.273438 C 101.121094 144.625 99.566406 143.492188 97.957031 142.617188 C 96.339844 141.746094 94.644531 141.101562 93.042969 140.441406 C 90.808594 139.523438 88.460938 138.980469 86.046875 138.980469 C 84.976562 138.980469 83.894531 139.089844 82.808594 139.316406 C 79.339844 140.046875 76.144531 141.691406 73.242188 143.886719 C 68.882812 147.1875 65.136719 151.726562 61.945312 156.535156 C 58.761719 161.347656 56.132812 166.429688 54.085938 170.84375 C 48.707031 182.429688 44.785156 196.332031 44.78125 209.855469 C 44.78125 212.296875 44.910156 214.726562 45.183594 217.128906 C 45.578125 220.605469 46.3125 224.453125 47.46875 228.179688 C 48.628906 231.910156 50.199219 235.523438 52.320312 238.535156 C 55.082031 242.457031 58.597656 245.324219 62.484375 247.1875 C 66.367188 249.054688 70.617188 249.929688 74.886719 249.929688 C 80.269531 249.929688 85.691406 248.542969 90.519531 245.976562 C 95.347656 243.410156 99.589844 239.644531 102.5625 234.871094 L 101.179688 234.003906"/><path style="stroke:none;fill-rule:nonzero;fill:#b14264;fill-opacity:1" d="M 84.824219 183.578125 L 84.570312 183.304688 L 84.824219 183.578125 L 84.570312 183.304688 L 84.824219 183.578125 C 84.851562 183.550781 86.226562 182.289062 88.320312 181.066406 C 89.367188 180.453125 90.589844 179.851562 91.902344 179.410156 C 93.21875 178.964844 94.617188 178.679688 96.027344 178.683594 C 98.03125 178.691406 100.046875 179.21875 102.09375 180.753906 L 104.050781 178.148438 C 101.449219 176.175781 98.636719 175.414062 96.027344 175.421875 C 94.15625 175.421875 92.386719 175.796875 90.789062 176.339844 C 88.394531 177.160156 86.375 178.359375 84.9375 179.359375 C 83.503906 180.355469 82.644531 181.152344 82.601562 181.191406 L 84.824219 183.578125"/><path style="stroke:none;fill-rule:nonzero;fill:#b14264;fill-opacity:1" d="M 85.433594 199.652344 C 85.417969 199.734375 85.214844 200.703125 85.214844 202.148438 C 85.214844 203.242188 85.332031 204.617188 85.757812 206.09375 C 86.078125 207.199219 86.574219 208.359375 87.328125 209.480469 C 88.460938 211.160156 90.1875 212.71875 92.628906 213.8125 C 95.070312 214.914062 98.203125 215.5625 102.226562 215.5625 C 102.515625 215.5625 102.808594 215.558594 103.105469 215.554688 L 103.039062 212.289062 C 102.761719 212.296875 102.492188 212.300781 102.226562 212.300781 C 98.960938 212.300781 96.488281 211.828125 94.632812 211.113281 C 93.238281 210.582031 92.1875 209.914062 91.371094 209.183594 C 90.152344 208.089844 89.441406 206.84375 89.015625 205.597656 C 88.59375 204.355469 88.46875 203.113281 88.46875 202.148438 C 88.46875 201.582031 88.511719 201.109375 88.550781 200.789062 C 88.574219 200.628906 88.589844 200.507812 88.605469 200.433594 L 88.617188 200.351562 L 88.621094 200.339844 L 88.019531 200.214844 L 88.621094 200.34375 L 88.621094 200.339844 L 88.019531 200.214844 L 88.621094 200.34375 L 85.4375 199.652344"/><path style="stroke:none;fill-rule:nonzero;fill:#b14264;fill-opacity:1" d="M 48.859375 220.011719 L 48.859375 219.988281 C 48.859375 219.933594 48.855469 219.785156 48.855469 219.550781 C 48.855469 218.746094 48.882812 216.957031 49.097656 214.75 C 49.414062 211.441406 50.171875 207.171875 51.753906 203.917969 C 52.539062 202.289062 53.519531 200.9375 54.671875 200.019531 C 55.253906 199.5625 55.875 199.207031 56.5625 198.960938 C 57.25 198.71875 58.007812 198.578125 58.882812 198.578125 C 58.976562 198.578125 59.070312 198.582031 59.160156 198.582031 L 59.292969 195.324219 C 59.152344 195.316406 59.015625 195.316406 58.882812 195.316406 C 57.253906 195.3125 55.761719 195.671875 54.457031 196.3125 C 53.316406 196.875 52.328125 197.644531 51.480469 198.539062 C 49.996094 200.105469 48.929688 202.050781 48.125 204.097656 C 46.921875 207.175781 46.304688 210.519531 45.972656 213.359375 C 45.640625 216.203125 45.597656 218.535156 45.597656 219.550781 C 45.597656 219.894531 45.601562 220.085938 45.601562 220.101562 L 48.859375 220.011719"/><path style="stroke:none;fill-rule:nonzero;fill:#b14264;fill-opacity:1" d="M 87.65625 207.203125 C 87.550781 207.285156 85.597656 208.78125 83.640625 211.765625 C 81.683594 214.742188 79.730469 219.230469 79.730469 225.148438 C 79.730469 225.480469 79.738281 225.820312 79.753906 226.167969 L 79.753906 226.164062 C 79.867188 229.253906 80.40625 231.753906 81.179688 233.753906 C 82.335938 236.761719 84.035156 238.636719 85.472656 239.722656 C 86.917969 240.8125 88.082031 241.132812 88.238281 241.175781 L 89.042969 238.011719 L 88.835938 238.820312 L 89.0625 238.015625 L 89.042969 238.011719 L 88.835938 238.820312 L 89.0625 238.015625 L 89 237.996094 C 88.691406 237.890625 87.3125 237.351562 85.957031 235.667969 C 85.273438 234.820312 84.59375 233.679688 84.046875 232.117188 C 83.503906 230.554688 83.101562 228.566406 83.007812 226.042969 L 83.007812 226.039062 C 82.996094 225.742188 82.992188 225.445312 82.992188 225.148438 C 82.992188 219.957031 84.679688 216.128906 86.363281 213.554688 C 87.203125 212.273438 88.042969 211.316406 88.660156 210.6875 C 88.972656 210.375 89.222656 210.140625 89.394531 209.992188 C 89.480469 209.921875 89.542969 209.867188 89.582031 209.835938 L 89.625 209.800781 L 89.628906 209.796875 L 89.171875 209.207031 L 89.625 209.800781 L 89.628906 209.796875 L 89.171875 209.207031 L 89.625 209.800781 L 87.65625 207.203125"/><path style="stroke:none;fill-rule:nonzero;fill:#b14264;fill-opacity:1" d="M 55.097656 209.082031 C 55.140625 209.1875 56.125 211.777344 58.492188 214.648438 C 59.675781 216.082031 61.210938 217.589844 63.15625 218.863281 C 65.097656 220.140625 67.457031 221.179688 70.242188 221.664062 C 72.03125 221.976562 73.605469 222.113281 74.992188 222.113281 C 78.4375 222.117188 80.753906 221.269531 82.207031 220.304688 C 83.664062 219.34375 84.21875 218.3125 84.3125 218.109375 L 81.375 216.695312 L 82.199219 217.09375 L 81.398438 216.652344 L 81.375 216.695312 L 82.199219 217.09375 L 81.398438 216.652344 C 81.375 216.6875 81.074219 217.203125 80.152344 217.742188 C 79.230469 218.273438 77.65625 218.847656 74.992188 218.851562 C 73.8125 218.851562 72.425781 218.734375 70.800781 218.449219 C 68.484375 218.042969 66.558594 217.195312 64.9375 216.132812 C 62.511719 214.546875 60.792969 212.472656 59.691406 210.792969 C 59.140625 209.953125 58.746094 209.214844 58.492188 208.695312 C 58.367188 208.4375 58.273438 208.234375 58.214844 208.101562 C 58.1875 208.035156 58.167969 207.984375 58.15625 207.953125 L 58.144531 207.921875 L 55.097656 209.082031"/><path style="stroke:none;fill-rule:nonzero;fill:#b14264;fill-opacity:1" d="M 60.523438 230.554688 C 60.589844 230.636719 62.046875 232.613281 64.714844 234.613281 C 66.046875 235.617188 67.6875 236.625 69.613281 237.386719 C 71.535156 238.148438 73.75 238.664062 76.195312 238.664062 C 78.722656 238.667969 81.492188 238.109375 84.398438 236.757812 L 83.03125 233.800781 C 80.519531 234.957031 78.25 235.398438 76.195312 235.402344 C 74.207031 235.402344 72.410156 234.984375 70.8125 234.351562 C 68.414062 233.402344 66.46875 231.953125 65.136719 230.734375 C 64.472656 230.128906 63.960938 229.582031 63.625 229.195312 C 63.453125 229.003906 63.328125 228.847656 63.25 228.746094 L 63.160156 228.636719 L 63.144531 228.613281 L 63.105469 228.640625 L 63.144531 228.613281 L 63.105469 228.640625 L 63.144531 228.613281 L 60.523438 230.554688"/><path style="stroke:none;fill-rule:nonzero;fill:#b14264;fill-opacity:1" d="M 78.710938 169.957031 L 78.40625 170.570312 L 78.714844 169.960938 L 78.710938 169.957031 L 78.40625 170.570312 L 78.714844 169.960938 C 78.707031 169.957031 77.421875 169.289062 76.230469 168.222656 C 75.632812 167.691406 75.066406 167.0625 74.675781 166.40625 C 74.28125 165.75 74.066406 165.089844 74.066406 164.40625 C 74.066406 164.027344 74.128906 163.628906 74.296875 163.179688 L 74.296875 163.175781 C 74.460938 162.738281 74.730469 162.296875 75.117188 161.816406 C 75.792969 160.984375 76.835938 160.082031 78.042969 159.03125 C 79.851562 157.453125 82.027344 155.515625 83.734375 152.660156 C 85.445312 149.808594 86.636719 146.054688 86.632812 141.023438 C 86.632812 140.890625 86.628906 140.765625 86.628906 140.644531 L 83.371094 140.660156 C 83.375 140.789062 83.375 140.910156 83.375 141.023438 C 83.371094 144.476562 82.769531 147.082031 81.867188 149.167969 C 80.515625 152.292969 78.464844 154.308594 76.417969 156.121094 C 75.394531 157.027344 74.371094 157.871094 73.460938 158.792969 C 72.554688 159.71875 71.730469 160.746094 71.246094 162.03125 L 71.25 162.03125 C 70.949219 162.832031 70.804688 163.640625 70.804688 164.40625 C 70.804688 165.828125 71.277344 167.09375 71.914062 168.136719 C 72.871094 169.703125 74.191406 170.839844 75.269531 171.632812 C 76.347656 172.417969 77.199219 172.847656 77.253906 172.875 L 78.710938 169.957031"/><path style="stroke:none;fill-rule:nonzero;fill:#b14264;fill-opacity:1" d="M 94.804688 166.355469 L 93.925781 166.867188 L 94.808594 166.367188 L 94.804688 166.355469 L 93.925781 166.867188 L 94.808594 166.367188 L 94.800781 166.355469 C 94.71875 166.214844 94.011719 164.792969 94.019531 163.039062 C 94.019531 162.382812 94.109375 161.679688 94.355469 160.945312 C 94.722656 159.847656 95.425781 158.667969 96.804688 157.453125 C 98.183594 156.242188 100.257812 155.019531 103.324219 153.960938 L 102.265625 150.875 C 97.777344 152.421875 94.886719 154.410156 93.109375 156.59375 C 92.226562 157.679688 91.628906 158.816406 91.265625 159.914062 C 90.898438 161.011719 90.757812 162.074219 90.761719 163.039062 C 90.761719 164.464844 91.054688 165.667969 91.351562 166.53125 C 91.644531 167.394531 91.941406 167.917969 91.980469 167.988281 L 94.804688 166.355469"/><path style="stroke:none;fill-rule:nonzero;fill:#b14264;fill-opacity:1" d="M 90.1875 189.832031 C 90.15625 189.75 89.375 187.347656 87.640625 184.679688 C 86.769531 183.347656 85.65625 181.945312 84.242188 180.746094 C 82.832031 179.546875 81.101562 178.550781 79.054688 178.121094 L 78.386719 181.316406 C 79.800781 181.613281 81.039062 182.304688 82.140625 183.238281 C 83.785156 184.625 85.058594 186.550781 85.886719 188.125 C 86.300781 188.910156 86.609375 189.609375 86.808594 190.101562 C 86.90625 190.34375 86.980469 190.539062 87.027344 190.667969 C 87.050781 190.734375 87.066406 190.785156 87.078125 190.8125 L 87.089844 190.847656 L 87.089844 190.851562 L 87.710938 190.644531 L 87.089844 190.847656 L 87.089844 190.851562 L 87.710938 190.644531 L 87.089844 190.847656 L 90.1875 189.832031"/><path style="stroke:none;fill-rule:nonzero;fill:#b14264;fill-opacity:1" d="M 64.78125 184.300781 C 64.730469 184.203125 64.105469 182.945312 62.789062 181.628906 C 62.128906 180.972656 61.292969 180.300781 60.25 179.78125 C 59.210938 179.265625 57.960938 178.910156 56.558594 178.910156 C 54.675781 178.910156 52.574219 179.546875 50.339844 181.023438 L 52.128906 183.746094 C 53.960938 182.542969 55.40625 182.175781 56.558594 182.175781 C 57.421875 182.175781 58.148438 182.382812 58.800781 182.707031 C 59.78125 183.1875 60.578125 183.964844 61.109375 184.628906 C 61.371094 184.960938 61.570312 185.261719 61.699219 185.472656 C 61.765625 185.574219 61.808594 185.65625 61.839844 185.707031 L 61.867188 185.757812 L 64.78125 184.300781"/><path style="stroke:none;fill-rule:nonzero;fill:#b14264;fill-opacity:1" d="M 74.234375 220.695312 C 74.273438 220.648438 75.144531 219.566406 76.042969 217.992188 C 76.492188 217.203125 76.945312 216.292969 77.300781 215.300781 C 77.652344 214.3125 77.910156 213.246094 77.914062 212.121094 C 77.914062 211.367188 77.792969 210.582031 77.472656 209.828125 C 77.152344 209.074219 76.632812 208.367188 75.9375 207.796875 L 73.875 210.328125 C 74.179688 210.582031 74.351562 210.824219 74.472656 211.105469 C 74.589844 211.386719 74.65625 211.71875 74.65625 212.121094 C 74.65625 212.71875 74.503906 213.453125 74.234375 214.203125 C 73.835938 215.324219 73.191406 216.464844 72.648438 217.300781 C 72.378906 217.722656 72.136719 218.066406 71.964844 218.300781 C 71.878906 218.417969 71.808594 218.507812 71.765625 218.566406 L 71.714844 218.632812 L 71.703125 218.644531 L 74.238281 220.695312"/><path style="stroke:none;fill-rule:nonzero;fill:#b14264;fill-opacity:1" d="M 60.773438 181.617188 L 59.695312 181.261719 L 60.765625 181.644531 L 60.773438 181.617188 L 59.695312 181.261719 L 60.765625 181.644531 L 60.542969 181.566406 L 60.761719 181.652344 L 60.765625 181.644531 L 60.542969 181.566406 L 60.761719 181.652344 C 60.773438 181.625 61.078125 180.839844 62.160156 180.046875 C 62.707031 179.648438 63.449219 179.242188 64.492188 178.925781 C 65.539062 178.609375 66.882812 178.390625 68.609375 178.390625 C 69.660156 178.390625 70.855469 178.46875 72.203125 178.664062 L 72.667969 175.4375 C 71.175781 175.21875 69.828125 175.125 68.609375 175.125 C 66.472656 175.125 64.71875 175.417969 63.285156 175.886719 C 61.136719 176.582031 59.722656 177.683594 58.875 178.652344 C 58.027344 179.621094 57.734375 180.4375 57.679688 180.59375 L 60.773438 181.617188"/><path style="stroke:none;fill-rule:nonzero;fill:#f591aa;fill-opacity:1" d="M 51.492188 234.445312 C 51.492188 234.445312 53.042969 230.695312 62.875 237.285156"/><path style="stroke:none;fill-rule:nonzero;fill:#b14264;fill-opacity:1" d="M 52.996094 235.070312 L 52.289062 234.773438 L 52.917969 235.226562 C 52.929688 235.210938 52.957031 235.164062 52.996094 235.070312 L 52.289062 234.773438 L 52.917969 235.226562 L 52.835938 235.167969 L 52.910156 235.234375 L 52.917969 235.226562 L 52.835938 235.167969 L 52.910156 235.234375 C 52.914062 235.230469 52.941406 235.195312 53.058594 235.140625 C 53.179688 235.089844 53.402344 235.015625 53.828125 235.015625 C 54.390625 235.011719 55.308594 235.15625 56.648438 235.691406 C 57.988281 236.226562 59.742188 237.144531 61.96875 238.640625 L 63.78125 235.929688 C 61.410156 234.339844 59.472656 233.308594 57.855469 232.660156 C 56.234375 232.015625 54.929688 231.753906 53.828125 231.75 C 52.578125 231.742188 51.585938 232.125 50.957031 232.617188 C 50.324219 233.109375 50.0625 233.636719 49.988281 233.824219 L 52.996094 235.070312"/><path style="stroke:none;fill-rule:nonzero;fill:#b14264;fill-opacity:1" d="M 64.511719 215.949219 C 64.511719 215.90625 64.464844 215.292969 64.464844 214.285156 C 64.464844 212.917969 64.550781 210.832031 64.921875 208.496094 C 65.199219 206.738281 65.640625 204.84375 66.320312 203.003906 C 67.34375 200.242188 68.894531 197.632812 71.195312 195.710938 C 72.347656 194.75 73.695312 193.949219 75.296875 193.375 C 76.898438 192.796875 78.761719 192.445312 80.957031 192.40625 L 80.902344 189.144531 C 76.4375 189.214844 72.855469 190.464844 70.101562 192.4375 C 68.039062 193.910156 66.445312 195.769531 65.234375 197.757812 C 63.414062 200.75 62.425781 204.046875 61.871094 207.003906 C 61.320312 209.96875 61.207031 212.601562 61.207031 214.285156 C 61.207031 215.460938 61.261719 216.171875 61.265625 216.207031 L 64.511719 215.949219"/><path style="stroke:none;fill-rule:nonzero;fill:#f26c9d;fill-opacity:1" d="M 105.734375 234.003906 C 115.808594 250.1875 141.484375 254.300781 153.265625 237.59375 C 157.238281 231.960938 159.347656 223.714844 160.117188 216.945312 C 161.851562 201.675781 157.613281 184.996094 151.359375 171.53125 C 145.953125 159.902344 136.507812 143.585938 123.773438 140.914062 C 120.613281 140.25 117.488281 140.722656 114.492188 141.953125 C 110.15625 143.730469 105.679688 145.234375 104.5 150.566406 C 102.957031 157.542969 102.695312 165.246094 103.566406 172.332031 C 104.46875 179.675781 103.140625 187.160156 102.628906 194.480469 C 101.824219 206.03125 99.101562 218.230469 103.449219 229.429688 C 104.074219 231.042969 104.84375 232.574219 105.734375 234.003906"/><path style="stroke:none;fill-rule:nonzero;fill:#b14264;fill-opacity:1" d="M 105.734375 234.003906 L 104.355469 234.871094 C 107.328125 239.644531 111.570312 243.410156 116.398438 245.976562 C 121.226562 248.542969 126.648438 249.929688 132.03125 249.929688 C 136.300781 249.929688 140.546875 249.058594 144.433594 247.1875 C 148.320312 245.324219 151.832031 242.457031 154.597656 238.535156 C 156.71875 235.523438 158.289062 231.910156 159.449219 228.179688 C 160.605469 224.453125 161.339844 220.605469 161.734375 217.128906 C 162.007812 214.726562 162.136719 212.296875 162.136719 209.851562 C 162.128906 196.332031 158.210938 182.429688 152.832031 170.84375 C 150.101562 164.960938 146.347656 157.878906 141.589844 151.851562 C 139.214844 148.839844 136.582031 146.085938 133.675781 143.886719 C 130.773438 141.691406 127.578125 140.046875 124.109375 139.316406 C 123.023438 139.089844 121.941406 138.980469 120.867188 138.980469 C 118.457031 138.980469 116.105469 139.523438 113.875 140.441406 C 111.742188 141.324219 109.429688 142.164062 107.378906 143.589844 C 106.359375 144.304688 105.402344 145.175781 104.625 146.273438 C 103.839844 147.371094 103.246094 148.683594 102.910156 150.214844 C 101.917969 154.699219 101.445312 159.449219 101.445312 164.15625 C 101.445312 166.988281 101.617188 169.800781 101.953125 172.53125 C 102.160156 174.230469 102.242188 175.949219 102.242188 177.683594 C 102.25 183.121094 101.398438 188.726562 101.003906 194.367188 C 100.546875 200.976562 99.421875 207.945312 99.417969 214.945312 C 99.417969 219.992188 100.011719 225.078125 101.929688 230.019531 C 102.59375 231.730469 103.40625 233.351562 104.355469 234.871094 L 107.117188 233.140625 C 106.277344 231.792969 105.554688 230.355469 104.964844 228.835938 C 103.242188 224.394531 102.675781 219.742188 102.675781 214.945312 C 102.671875 208.292969 103.773438 201.402344 104.253906 194.59375 C 104.628906 189.132812 105.5 183.453125 105.503906 177.683594 C 105.503906 175.84375 105.414062 173.988281 105.183594 172.132812 C 104.863281 169.539062 104.703125 166.855469 104.703125 164.15625 C 104.703125 159.667969 105.152344 155.140625 106.089844 150.917969 C 106.34375 149.785156 106.753906 148.910156 107.277344 148.167969 C 108.066406 147.0625 109.15625 146.226562 110.511719 145.488281 C 111.867188 144.75 113.457031 144.136719 115.109375 143.460938 C 117.027344 142.675781 118.949219 142.242188 120.867188 142.242188 C 121.722656 142.242188 122.578125 142.328125 123.441406 142.507812 C 126.335938 143.117188 129.097656 144.511719 131.714844 146.492188 C 135.636719 149.457031 139.199219 153.726562 142.253906 158.339844 C 145.3125 162.953125 147.875 167.910156 149.878906 172.21875 C 155.097656 183.445312 158.882812 196.964844 158.878906 209.851562 C 158.878906 212.179688 158.753906 214.488281 158.496094 216.757812 C 158.125 220.054688 157.417969 223.714844 156.335938 227.210938 C 155.253906 230.707031 153.785156 234.035156 151.9375 236.652344 C 149.488281 240.121094 146.433594 242.605469 143.023438 244.246094 C 139.617188 245.882812 135.855469 246.667969 132.03125 246.667969 C 127.207031 246.667969 122.289062 245.417969 117.929688 243.09375 C 113.5625 240.773438 109.761719 237.386719 107.117188 233.140625 L 105.734375 234.003906"/><path style="stroke:none;fill-rule:nonzero;fill:#b14264;fill-opacity:1" d="M 124.316406 181.191406 C 124.257812 181.140625 122.757812 179.734375 120.355469 178.316406 C 119.15625 177.605469 117.726562 176.886719 116.128906 176.339844 C 114.53125 175.796875 112.761719 175.421875 110.890625 175.421875 C 108.28125 175.414062 105.46875 176.175781 102.867188 178.148438 L 104.828125 180.753906 C 106.871094 179.21875 108.886719 178.691406 110.890625 178.683594 C 112.324219 178.679688 113.746094 178.972656 115.078125 179.429688 C 117.074219 180.109375 118.859375 181.160156 120.125 182.039062 C 120.757812 182.476562 121.261719 182.871094 121.597656 183.152344 C 121.769531 183.292969 121.898438 183.402344 121.980469 183.476562 L 122.070312 183.558594 L 122.09375 183.574219 L 122.09375 183.582031 L 122.519531 183.117188 L 122.09375 183.578125 L 122.09375 183.582031 L 122.519531 183.117188 L 122.09375 183.578125 L 124.316406 181.191406"/><path style="stroke:none;fill-rule:nonzero;fill:#b14264;fill-opacity:1" d="M 118.296875 200.34375 L 118.882812 200.214844 L 118.296875 200.335938 L 118.296875 200.34375 L 118.882812 200.214844 L 118.296875 200.335938 C 118.300781 200.355469 118.445312 201.085938 118.445312 202.148438 C 118.445312 203.007812 118.351562 204.082031 118.03125 205.183594 C 117.789062 206.011719 117.429688 206.851562 116.890625 207.648438 C 116.074219 208.84375 114.875 209.96875 112.953125 210.839844 C 111.03125 211.703125 108.367188 212.300781 104.6875 212.300781 C 104.425781 212.300781 104.15625 212.296875 103.882812 212.289062 L 103.8125 215.554688 C 104.109375 215.558594 104.402344 215.5625 104.6875 215.5625 C 108.265625 215.5625 111.136719 215.050781 113.449219 214.164062 C 115.183594 213.5 116.59375 212.621094 117.714844 211.617188 C 119.402344 210.109375 120.417969 208.328125 120.984375 206.648438 C 121.558594 204.964844 121.703125 203.378906 121.703125 202.148438 C 121.703125 200.703125 121.5 199.738281 121.484375 199.652344 L 118.296875 200.34375"/><path style="stroke:none;fill-rule:nonzero;fill:#b14264;fill-opacity:1" d="M 161.316406 220.097656 C 161.316406 220.085938 161.320312 219.890625 161.320312 219.550781 C 161.320312 218.664062 161.289062 216.78125 161.0625 214.433594 C 160.710938 210.90625 159.953125 206.359375 158.09375 202.496094 C 157.160156 200.566406 155.933594 198.789062 154.269531 197.464844 C 153.433594 196.804688 152.492188 196.257812 151.449219 195.886719 C 150.402344 195.515625 149.257812 195.316406 148.035156 195.316406 C 147.898438 195.316406 147.761719 195.316406 147.625 195.324219 L 147.757812 198.582031 C 147.851562 198.582031 147.945312 198.578125 148.035156 198.578125 C 149.195312 198.582031 150.160156 198.824219 151.023438 199.242188 C 151.773438 199.613281 152.453125 200.128906 153.074219 200.789062 C 154.164062 201.929688 155.0625 203.503906 155.757812 205.289062 C 156.808594 207.960938 157.402344 211.074219 157.710938 213.738281 C 158.023438 216.402344 158.0625 218.625 158.0625 219.550781 C 158.0625 219.707031 158.0625 219.828125 158.058594 219.90625 L 158.058594 220.019531 L 161.316406 220.097656"/><path style="stroke:none;fill-rule:nonzero;fill:#b14264;fill-opacity:1" d="M 117.292969 209.800781 L 117.769531 209.175781 L 117.289062 209.796875 L 117.292969 209.800781 L 117.769531 209.175781 L 117.289062 209.796875 C 117.296875 209.800781 118.980469 211.113281 120.632812 213.675781 C 122.289062 216.246094 123.921875 220.039062 123.925781 225.148438 C 123.925781 225.4375 123.921875 225.738281 123.910156 226.046875 L 123.910156 226.042969 C 123.808594 228.824219 123.328125 230.953125 122.699219 232.578125 C 121.753906 235.019531 120.484375 236.355469 119.480469 237.121094 C 118.976562 237.5 118.539062 237.734375 118.242188 237.867188 C 118.097656 237.929688 117.984375 237.972656 117.921875 237.996094 L 117.859375 238.015625 L 117.855469 238.015625 L 118.058594 238.726562 L 117.875 238.011719 L 117.855469 238.015625 L 118.058594 238.726562 L 117.875 238.011719 L 118.679688 241.175781 C 118.785156 241.144531 119.335938 240.996094 120.121094 240.574219 C 121.296875 239.949219 123.003906 238.691406 124.433594 236.398438 C 125.863281 234.101562 126.996094 230.800781 127.164062 226.164062 L 127.164062 226.160156 C 127.175781 225.820312 127.183594 225.484375 127.183594 225.148438 C 127.1875 219.230469 125.234375 214.742188 123.277344 211.761719 C 121.320312 208.78125 119.367188 207.285156 119.265625 207.203125 L 117.292969 209.800781"/><path style="stroke:none;fill-rule:nonzero;fill:#b14264;fill-opacity:1" d="M 148.773438 207.921875 L 149.25 208.105469 L 148.777344 207.921875 L 148.773438 207.921875 L 149.25 208.105469 L 148.777344 207.921875 C 148.761719 207.960938 147.859375 210.261719 145.820312 212.6875 C 144.800781 213.898438 143.503906 215.148438 141.902344 216.183594 C 140.300781 217.21875 138.394531 218.050781 136.117188 218.449219 C 134.492188 218.734375 133.105469 218.851562 131.925781 218.851562 C 128.996094 218.84375 127.382812 218.15625 126.503906 217.578125 C 126.066406 217.289062 125.804688 217.019531 125.660156 216.84375 C 125.585938 216.757812 125.546875 216.695312 125.53125 216.667969 L 125.519531 216.652344 L 125.519531 216.648438 L 124.792969 217.054688 L 125.542969 216.695312 L 125.519531 216.648438 L 124.792969 217.054688 L 125.542969 216.695312 L 122.605469 218.109375 C 122.699219 218.3125 123.253906 219.34375 124.710938 220.304688 C 126.164062 221.269531 128.476562 222.117188 131.925781 222.113281 C 133.3125 222.113281 134.886719 221.976562 136.675781 221.664062 C 139.460938 221.179688 141.820312 220.140625 143.761719 218.863281 C 146.683594 216.949219 148.671875 214.527344 149.949219 212.585938 C 151.226562 210.636719 151.789062 209.164062 151.820312 209.082031 L 148.773438 207.921875"/><path style="stroke:none;fill-rule:nonzero;fill:#b14264;fill-opacity:1" d="M 143.773438 228.613281 L 144.207031 228.933594 L 143.777344 228.613281 L 143.773438 228.613281 L 144.207031 228.933594 L 143.777344 228.613281 C 143.757812 228.640625 142.4375 230.390625 140.140625 232.085938 C 138.996094 232.929688 137.609375 233.765625 136.03125 234.382812 C 134.449219 235 132.679688 235.402344 130.722656 235.402344 C 128.667969 235.398438 126.398438 234.957031 123.890625 233.800781 L 122.519531 236.757812 C 125.425781 238.109375 128.191406 238.667969 130.722656 238.664062 C 133.167969 238.664062 135.382812 238.148438 137.304688 237.386719 C 140.195312 236.242188 142.4375 234.550781 143.972656 233.144531 C 145.511719 231.742188 146.347656 230.617188 146.394531 230.554688 L 143.773438 228.613281"/><path style="stroke:none;fill-rule:nonzero;fill:#b14264;fill-opacity:1" d="M 129.664062 172.875 C 129.738281 172.835938 131.222656 172.09375 132.785156 170.722656 C 133.566406 170.03125 134.367188 169.179688 135.003906 168.136719 C 135.640625 167.09375 136.113281 165.828125 136.113281 164.410156 C 136.113281 163.636719 135.96875 162.832031 135.671875 162.03125 C 135.347656 161.175781 134.871094 160.429688 134.324219 159.757812 C 133.367188 158.585938 132.199219 157.609375 131.011719 156.570312 C 129.226562 155.011719 127.386719 153.34375 125.976562 150.984375 C 124.574219 148.625 123.550781 145.558594 123.542969 141.023438 C 123.542969 140.902344 123.542969 140.789062 123.546875 140.683594 L 120.289062 140.621094 C 120.285156 140.765625 120.285156 140.898438 120.285156 141.023438 C 120.285156 144.855469 120.96875 147.945312 122.058594 150.464844 C 123.691406 154.25 126.210938 156.683594 128.347656 158.570312 C 129.417969 159.511719 130.394531 160.328125 131.136719 161.085938 C 131.886719 161.84375 132.378906 162.523438 132.621094 163.175781 C 132.785156 163.628906 132.851562 164.03125 132.851562 164.410156 C 132.851562 165.101562 132.628906 165.769531 132.222656 166.4375 C 131.621094 167.4375 130.605469 168.363281 129.730469 168.996094 C 129.296875 169.3125 128.898438 169.558594 128.621094 169.726562 C 128.480469 169.804688 128.371094 169.867188 128.296875 169.910156 L 128.203125 169.957031 L 128.203125 169.960938 L 128.625 170.792969 L 128.207031 169.957031 L 128.203125 169.960938 L 128.625 170.792969 L 128.207031 169.957031 L 129.664062 172.875"/><path style="stroke:none;fill-rule:nonzero;fill:#b14264;fill-opacity:1" d="M 114.9375 167.988281 C 114.976562 167.917969 115.273438 167.394531 115.566406 166.53125 C 115.863281 165.667969 116.15625 164.464844 116.15625 163.039062 C 116.15625 162.074219 116.019531 161.011719 115.652344 159.914062 C 115.109375 158.261719 114.035156 156.546875 112.257812 154.996094 C 110.480469 153.441406 108.019531 152.035156 104.652344 150.875 L 103.59375 153.960938 C 107.683594 155.371094 110 157.074219 111.277344 158.65625 C 111.921875 159.445312 112.316406 160.214844 112.5625 160.945312 C 112.808594 161.679688 112.898438 162.382812 112.898438 163.039062 C 112.898438 164.007812 112.695312 164.871094 112.484375 165.476562 C 112.378906 165.777344 112.277344 166.019531 112.207031 166.171875 C 112.171875 166.246094 112.144531 166.304688 112.125 166.335938 L 112.109375 166.367188 L 112.992188 166.867188 L 112.113281 166.355469 L 112.109375 166.367188 L 112.992188 166.867188 L 112.113281 166.355469 L 114.9375 167.988281"/><path style="stroke:none;fill-rule:nonzero;fill:#b14264;fill-opacity:1" d="M 119.828125 190.847656 L 119.589844 190.769531 L 119.828125 190.847656 L 119.589844 190.769531 L 119.828125 190.847656 C 119.84375 190.792969 120.582031 188.605469 122.078125 186.359375 C 122.820312 185.234375 123.75 184.097656 124.832031 183.191406 C 125.917969 182.285156 127.140625 181.609375 128.53125 181.316406 L 127.863281 178.121094 C 125.816406 178.550781 124.085938 179.546875 122.675781 180.746094 C 120.558594 182.546875 119.105469 184.796875 118.152344 186.601562 C 117.199219 188.40625 116.753906 189.769531 116.730469 189.832031 L 119.828125 190.847656"/><path style="stroke:none;fill-rule:nonzero;fill:#b14264;fill-opacity:1" d="M 145.050781 185.757812 L 144.589844 185.527344 L 145.050781 185.761719 L 145.050781 185.757812 L 144.589844 185.527344 L 145.050781 185.761719 C 145.0625 185.730469 145.585938 184.75 146.515625 183.855469 C 146.980469 183.40625 147.539062 182.980469 148.175781 182.675781 C 148.8125 182.371094 149.523438 182.175781 150.359375 182.175781 C 151.511719 182.175781 152.957031 182.542969 154.789062 183.746094 L 156.578125 181.023438 C 154.34375 179.546875 152.242188 178.910156 150.359375 178.910156 C 148.957031 178.910156 147.703125 179.265625 146.664062 179.78125 C 145.101562 180.5625 144 181.679688 143.269531 182.589844 C 142.539062 183.5 142.175781 184.226562 142.136719 184.300781 L 145.050781 185.757812"/><path style="stroke:none;fill-rule:nonzero;fill:#b14264;fill-opacity:1" d="M 135.214844 218.644531 L 134.921875 218.878906 L 135.214844 218.644531 L 134.921875 218.878906 L 135.214844 218.644531 C 135.199219 218.625 134.417969 217.644531 133.667969 216.3125 C 133.296875 215.652344 132.929688 214.902344 132.671875 214.167969 C 132.40625 213.429688 132.257812 212.707031 132.261719 212.121094 C 132.261719 211.71875 132.324219 211.382812 132.445312 211.105469 C 132.566406 210.824219 132.734375 210.582031 133.042969 210.328125 L 130.984375 207.796875 C 130.285156 208.367188 129.765625 209.074219 129.445312 209.828125 C 129.125 210.582031 129 211.371094 129.003906 212.121094 C 129.007812 213.246094 129.261719 214.3125 129.617188 215.300781 C 130.148438 216.785156 130.90625 218.101562 131.527344 219.074219 C 132.15625 220.042969 132.652344 220.660156 132.683594 220.695312 L 135.214844 218.644531"/><path style="stroke:none;fill-rule:nonzero;fill:#b14264;fill-opacity:1" d="M 149.238281 180.59375 C 149.203125 180.488281 149.0625 180.09375 148.71875 179.550781 C 148.207031 178.742188 147.226562 177.605469 145.542969 176.699219 C 143.863281 175.789062 141.511719 175.125 138.308594 175.125 C 137.089844 175.125 135.738281 175.21875 134.25 175.4375 L 134.714844 178.664062 C 136.0625 178.46875 137.257812 178.390625 138.308594 178.390625 C 140.148438 178.390625 141.554688 178.640625 142.625 178.988281 C 144.230469 179.515625 145.097656 180.246094 145.597656 180.808594 C 145.84375 181.089844 145.992188 181.328125 146.074219 181.484375 C 146.117188 181.558594 146.140625 181.613281 146.152344 181.636719 L 146.15625 181.648438 L 146.15625 181.652344 L 146.910156 181.367188 L 146.144531 181.617188 L 146.15625 181.652344 L 146.910156 181.367188 L 146.144531 181.617188 L 149.238281 180.59375"/><path style="stroke:none;fill-rule:nonzero;fill:#f591aa;fill-opacity:1" d="M 155.425781 234.445312 C 155.425781 234.445312 153.875 230.695312 144.042969 237.285156"/><path style="stroke:none;fill-rule:nonzero;fill:#b14264;fill-opacity:1" d="M 156.929688 233.824219 C 156.855469 233.636719 156.597656 233.109375 155.960938 232.617188 C 155.328125 232.125 154.339844 231.742188 153.089844 231.75 C 151.988281 231.753906 150.679688 232.015625 149.0625 232.660156 C 147.441406 233.308594 145.507812 234.339844 143.136719 235.929688 L 144.949219 238.640625 C 147.175781 237.144531 148.929688 236.226562 150.265625 235.691406 C 151.609375 235.15625 152.527344 235.011719 153.089844 235.015625 C 153.738281 235.019531 153.914062 235.167969 153.976562 235.210938 L 154.003906 235.230469 L 154.007812 235.234375 L 154.460938 234.847656 L 153.921875 235.070312 C 153.972656 235.195312 154.003906 235.230469 154.007812 235.234375 L 154.460938 234.847656 L 153.921875 235.070312 L 156.929688 233.824219"/><path style="stroke:none;fill-rule:nonzero;fill:#b14264;fill-opacity:1" d="M 145.652344 216.207031 C 145.65625 216.171875 145.710938 215.460938 145.710938 214.289062 C 145.710938 212.789062 145.621094 210.542969 145.214844 207.980469 C 144.90625 206.058594 144.421875 203.960938 143.652344 201.871094 C 142.492188 198.742188 140.679688 195.601562 137.808594 193.207031 C 136.375 192.007812 134.683594 191.007812 132.722656 190.300781 C 130.757812 189.597656 128.527344 189.1875 126.015625 189.144531 L 125.960938 192.40625 C 129.863281 192.480469 132.714844 193.523438 134.925781 195.09375 C 136.582031 196.277344 137.875 197.773438 138.902344 199.457031 C 140.4375 201.980469 141.339844 204.914062 141.84375 207.605469 C 142.347656 210.300781 142.453125 212.75 142.453125 214.289062 C 142.453125 214.820312 142.441406 215.246094 142.425781 215.535156 C 142.421875 215.679688 142.414062 215.789062 142.410156 215.859375 L 142.40625 215.933594 L 142.40625 215.953125 L 145.652344 216.207031"/><path style="stroke:none;fill-rule:nonzero;fill:#fff;fill-opacity:1" d="M 55.285156 219.53125 L 55.285156 219.527344 C 55.277344 219.40625 55.199219 218.117188 55.199219 215.945312 C 55.199219 210.410156 55.703125 199.136719 59.085938 186.898438 C 60.777344 180.78125 63.183594 174.425781 66.582031 168.417969 C 69.984375 162.40625 74.375 156.75 80.046875 151.984375 L 77.394531 148.816406 C 71.289062 153.945312 66.597656 160.011719 62.992188 166.378906 C 57.589844 175.933594 54.625 186.160156 52.992188 195.078125 C 51.363281 203.996094 51.074219 211.605469 51.074219 215.945312 C 51.074219 218.363281 51.164062 219.765625 51.167969 219.804688 L 55.285156 219.53125"/><path style="stroke:none;fill-rule:nonzero;fill:#fbca99;fill-opacity:1" d="M 86.136719 252.3125 C 80.644531 257.335938 73.984375 259.0625 68.96875 253.5625 L 14.699219 194.039062 C 9.683594 188.539062 11.679688 181.695312 17.171875 176.671875 L 17.675781 176.210938 C 23.164062 171.1875 30.152344 169.816406 35.167969 175.316406 L 89.4375 234.835938 C 94.453125 240.335938 92.132812 246.828125 86.644531 251.855469 L 86.136719 252.3125"/><path style="stroke:none;fill-rule:nonzero;fill:#f8a461;fill-opacity:1" d="M 63.714844 213.007812 L 59.382812 212.808594 L 61.597656 206.277344 C 62.988281 208.304688 63.6875 210.65625 63.714844 213.007812 M 59.207031 212.804688 L 39.460938 211.90625 C 39.753906 209.035156 41.0625 206.261719 43.355469 204.160156 C 45.691406 202.027344 48.625 200.972656 51.554688 200.972656 C 52.484375 200.972656 53.410156 201.082031 54.320312 201.289062 L 54.070312 202.425781 L 59.207031 212.804688"/><path style="stroke:none;fill-rule:nonzero;fill:#f89f8e;fill-opacity:1" d="M 12.777344 182.636719 C 11.152344 186.433594 11.480469 190.511719 14.699219 194.039062 L 68.96875 253.5625 C 72.183594 257.085938 76.078125 257.640625 79.902344 256.261719 L 12.777344 182.636719"/><path style="stroke:none;fill-rule:nonzero;fill:#d42146;fill-opacity:1" d="M 56.09375 219.359375 C 50.601562 224.382812 45.625 227.960938 45.035156 227.3125 L 38.632812 220.289062 C 38.039062 219.640625 42.046875 215 47.539062 209.980469 L 48.042969 209.515625 C 53.53125 204.496094 58.507812 200.914062 59.097656 201.566406 L 65.503906 208.589844 C 66.097656 209.238281 62.085938 213.875 56.597656 218.902344 L 56.09375 219.359375"/><path style="stroke:none;fill-rule:nonzero;fill:#f03652;fill-opacity:1" d="M 54.070312 202.425781 L 58.144531 183.988281 L 60.085938 190.605469 L 68.410156 186.152344 L 59.316406 213.015625 L 54.070312 202.425781"/><path style="stroke:none;fill-rule:nonzero;fill:#b11437;fill-opacity:1" d="M 62.894531 215.410156 L 81.597656 213.015625 L 75.195312 210.476562 L 80.371094 202.582031 L 52.839844 209.222656 L 62.894531 215.410156"/><path style="stroke:none;fill-rule:nonzero;fill:#f8a229;fill-opacity:1" d="M 60.269531 223.433594 C 55.308594 227.972656 47.617188 227.621094 43.085938 222.652344 C 38.558594 217.6875 38.90625 209.980469 43.867188 205.445312 C 48.824219 200.90625 56.519531 201.257812 61.046875 206.222656 C 65.578125 211.191406 65.230469 218.894531 60.269531 223.433594"/><path style="stroke:none;fill-rule:nonzero;fill:#fcd326;fill-opacity:1" d="M 64.226562 214.292969 C 64.191406 211.40625 63.144531 208.523438 61.046875 206.222656 C 56.519531 201.257812 48.824219 200.90625 43.867188 205.445312 C 41.570312 207.542969 40.265625 210.320312 39.972656 213.1875 L 64.226562 214.292969"/><path style="stroke:none;fill-rule:nonzero;fill:#fcd326;fill-opacity:1" d="M 41.769531 220.917969 C 42.152344 221.527344 42.585938 222.105469 43.085938 222.652344 C 47.617188 227.621094 55.308594 227.972656 60.269531 223.433594 C 60.816406 222.933594 61.300781 222.394531 61.734375 221.828125 L 41.769531 220.917969"/><path style="stroke:none;fill-rule:nonzero;fill:#ec2f6e;fill-opacity:1" d="M 130.597656 199.597656 C 124.417969 199.597656 119.410156 196.683594 119.410156 193.09375 C 119.410156 189.5 124.417969 186.589844 130.597656 186.589844 C 136.773438 186.589844 141.78125 189.5 141.78125 193.09375 C 141.78125 194.167969 141.332031 195.183594 140.535156 196.078125 C 139.753906 195.046875 138.851562 194.078125 137.808594 193.207031 C 136.375 192.007812 134.683594 191.007812 132.722656 190.300781 C 130.757812 189.597656 128.527344 189.1875 126.015625 189.144531 L 125.960938 192.40625 C 129.863281 192.480469 132.714844 193.523438 134.925781 195.09375 C 136.089844 195.925781 137.074219 196.914062 137.914062 198.011719 C 135.953125 199 133.394531 199.597656 130.597656 199.597656"/><path style="stroke:none;fill-rule:nonzero;fill:#831833;fill-opacity:1" d="M 137.914062 198.011719 C 137.074219 196.914062 136.089844 195.925781 134.925781 195.09375 C 132.714844 193.523438 129.863281 192.480469 125.960938 192.40625 L 126.015625 189.144531 C 128.527344 189.1875 130.757812 189.597656 132.722656 190.300781 C 134.683594 191.007812 136.375 192.007812 137.808594 193.207031 C 138.851562 194.078125 139.753906 195.046875 140.535156 196.078125 C 139.878906 196.816406 138.988281 197.472656 137.914062 198.011719"/><path style="stroke:none;fill-rule:nonzero;fill:#ee4e75;fill-opacity:1" d="M 76.964844 199.597656 C 73.945312 199.597656 71.203125 198.902344 69.191406 197.769531 C 69.785156 197.023438 70.453125 196.332031 71.195312 195.710938 C 72.347656 194.75 73.695312 193.949219 75.296875 193.375 C 76.898438 192.796875 78.761719 192.445312 80.957031 192.40625 L 80.902344 189.144531 C 76.4375 189.214844 72.855469 190.464844 70.101562 192.4375 C 68.777344 193.378906 67.652344 194.480469 66.695312 195.671875 C 66.25 195.074219 65.953125 194.429688 65.835938 193.75 L 67.09375 190.027344 C 68.980469 187.980469 72.691406 186.589844 76.964844 186.589844 C 81.164062 186.589844 84.824219 187.9375 86.738281 189.929688 C 86.761719 189.988281 86.785156 190.042969 86.808594 190.101562 C 86.90625 190.34375 86.980469 190.539062 87.027344 190.667969 C 87.050781 190.734375 87.066406 190.785156 87.078125 190.8125 L 87.089844 190.847656 L 87.089844 190.851562 L 87.398438 190.75 C 87.882812 191.476562 88.148438 192.265625 88.148438 193.09375 C 88.148438 196.683594 83.140625 199.597656 76.964844 199.597656"/><path style="stroke:none;fill-rule:nonzero;fill:#831833;fill-opacity:1" d="M 87.089844 190.851562 L 87.089844 190.847656 L 87.078125 190.8125 C 87.066406 190.785156 87.050781 190.734375 87.027344 190.667969 C 86.980469 190.539062 86.90625 190.34375 86.808594 190.101562 C 86.785156 190.042969 86.761719 189.988281 86.738281 189.929688 C 86.988281 190.191406 87.210938 190.464844 87.398438 190.75 L 87.089844 190.851562"/><path style="stroke:none;fill-rule:nonzero;fill:#831833;fill-opacity:1" d="M 69.191406 197.769531 C 68.136719 197.179688 67.285156 196.46875 66.695312 195.671875 C 67.652344 194.480469 68.777344 193.378906 70.101562 192.4375 C 72.855469 190.464844 76.4375 189.214844 80.902344 189.144531 L 80.957031 192.40625 C 78.761719 192.445312 76.898438 192.796875 75.296875 193.375 C 73.695312 193.949219 72.347656 194.75 71.195312 195.710938 C 70.453125 196.332031 69.785156 197.023438 69.191406 197.769531"/><path style="stroke:none;fill-rule:nonzero;fill:#ed1d34;fill-opacity:1" d="M 65.835938 193.75 C 65.800781 193.535156 65.78125 193.316406 65.78125 193.09375 C 65.78125 191.988281 66.257812 190.941406 67.09375 190.027344 L 65.835938 193.75"/><path style="stroke:none;fill-rule:nonzero;fill:#bf1b54;fill-opacity:1" d="M 95.765625 185.882812 C 95.765625 185.882812 105.609375 187.351562 111.792969 185.925781 C 111.792969 185.925781 109.878906 193.214844 102.511719 192.535156 C 100.335938 192.335938 96.777344 190.675781 95.765625 185.882812"/><path style="stroke:none;fill-rule:nonzero;fill:#202e5b;fill-opacity:1" d="M 95.765625 185.882812 L 95.578125 187.160156 C 95.609375 187.167969 100.105469 187.839844 105.023438 187.839844 C 107.414062 187.839844 109.902344 187.683594 112.082031 187.183594 L 111.792969 185.925781 L 110.542969 185.59375 C 110.519531 185.691406 110.070312 187.207031 108.960938 188.605469 C 108.410156 189.304688 107.707031 189.96875 106.816406 190.460938 C 105.921875 190.953125 104.847656 191.28125 103.464844 191.28125 C 103.195312 191.28125 102.917969 191.269531 102.628906 191.246094 C 101.792969 191.171875 100.578125 190.785156 99.515625 189.921875 C 98.449219 189.054688 97.484375 187.734375 97.03125 185.613281 L 95.765625 185.882812 L 95.578125 187.160156 L 95.765625 185.882812 L 94.503906 186.148438 C 95.058594 188.820312 96.382812 190.726562 97.894531 191.9375 C 99.40625 193.152344 101.054688 193.695312 102.390625 193.820312 L 102.394531 193.820312 C 102.757812 193.855469 103.117188 193.871094 103.464844 193.871094 C 105.324219 193.875 106.910156 193.390625 108.183594 192.664062 C 110.09375 191.5625 111.289062 189.960938 112.019531 188.660156 C 112.75 187.355469 113.023438 186.324219 113.042969 186.25 C 113.15625 185.8125 113.035156 185.347656 112.722656 185.023438 C 112.40625 184.695312 111.945312 184.5625 111.503906 184.664062 C 109.632812 185.09375 107.292969 185.253906 105.023438 185.253906 C 102.679688 185.253906 100.402344 185.089844 98.71875 184.925781 C 97.875 184.84375 97.179688 184.761719 96.699219 184.703125 C 96.457031 184.671875 96.269531 184.648438 96.144531 184.628906 C 96.078125 184.621094 96.035156 184.613281 96 184.609375 L 95.957031 184.601562 C 95.535156 184.539062 95.113281 184.6875 94.824219 184.996094 C 94.535156 185.304688 94.414062 185.734375 94.503906 186.148438 L 95.765625 185.882812"/><path style="stroke:none;fill-rule:nonzero;fill:#202e5b;fill-opacity:1" d="M 74.714844 176.945312 C 74.714844 176.945312 72.351562 175.578125 72.496094 173.382812 C 72.496094 173.382812 74.0625 174.984375 74.796875 174.394531"/><path style="stroke:none;fill-rule:nonzero;fill:#202e5b;fill-opacity:1" d="M 75.324219 174.679688 C 75.324219 174.679688 73.578125 174.003906 73.332031 172.144531 C 73.332031 172.144531 74.429688 173.394531 75.570312 172.78125"/><path style="stroke:none;fill-rule:nonzero;fill:#202e5b;fill-opacity:1" d="M 76.417969 173.34375 C 76.417969 173.34375 74.675781 172.671875 74.425781 170.808594 C 74.425781 170.808594 75.519531 172.058594 76.664062 171.445312"/><path style="stroke:none;fill-rule:nonzero;fill:#202e5b;fill-opacity:1" d="M 74.15625 178.195312 C 74.335938 183.078125 77.992188 186.933594 82.320312 186.804688 C 86.648438 186.679688 90.007812 182.617188 89.820312 177.734375 C 89.640625 172.847656 85.980469 168.996094 81.65625 169.125 C 77.328125 169.25 73.96875 173.3125 74.15625 178.195312"/><path style="stroke:none;fill-rule:nonzero;fill:#202e5b;fill-opacity:1" d="M 132.847656 178.292969 C 132.847656 178.292969 135.207031 176.925781 135.0625 174.726562 C 135.0625 174.726562 133.496094 176.332031 132.761719 175.742188"/><path style="stroke:none;fill-rule:nonzero;fill:#202e5b;fill-opacity:1" d="M 132.238281 176.027344 C 132.238281 176.027344 133.976562 175.351562 134.226562 173.488281 C 134.226562 173.488281 133.132812 174.738281 131.988281 174.128906"/><path style="stroke:none;fill-rule:nonzero;fill:#202e5b;fill-opacity:1" d="M 131.140625 174.691406 C 131.140625 174.691406 132.886719 174.015625 133.132812 172.15625 C 133.132812 172.15625 132.039062 173.402344 130.894531 172.796875"/><path style="stroke:none;fill-rule:nonzero;fill:#202e5b;fill-opacity:1" d="M 133.40625 179.386719 C 133.222656 184.269531 129.566406 188.125 125.238281 188 C 120.914062 187.871094 117.554688 183.808594 117.738281 178.925781 C 117.921875 174.042969 121.578125 170.191406 125.90625 170.316406 C 130.230469 170.441406 133.589844 174.503906 133.40625 179.386719"/><path style="stroke:none;fill-rule:nonzero;fill:#192346;fill-opacity:1" d="M 130.324219 180.058594 C 130.210938 183.035156 127.980469 185.386719 125.339844 185.308594 C 122.699219 185.230469 120.652344 182.753906 120.765625 179.777344 C 120.878906 176.796875 123.109375 174.445312 125.746094 174.523438 C 128.382812 174.601562 130.433594 177.078125 130.324219 180.058594"/><path style="stroke:none;fill-rule:nonzero;fill:#192346;fill-opacity:1" d="M 86.765625 180.058594 C 86.65625 183.035156 84.425781 185.386719 81.785156 185.308594 C 79.148438 185.230469 77.097656 182.753906 77.210938 179.777344 C 77.320312 176.796875 79.550781 174.445312 82.191406 174.523438 C 84.828125 174.601562 86.878906 177.078125 86.765625 180.058594"/><path style="stroke:none;fill-rule:nonzero;fill:#fff;fill-opacity:1" d="M 124.117188 176.027344 C 124 177.742188 125.289062 179.203125 126.992188 179.292969 C 128.699219 179.386719 130.171875 178.070312 130.289062 176.355469 C 130.40625 174.640625 129.117188 173.179688 127.414062 173.089844 C 125.707031 172.996094 124.230469 174.3125 124.117188 176.027344"/><path style="stroke:none;fill-rule:nonzero;fill:#fff;fill-opacity:1" d="M 119.996094 180.238281 C 119.917969 181.382812 120.777344 182.355469 121.910156 182.414062 C 123.046875 182.476562 124.027344 181.597656 124.101562 180.460938 C 124.183594 179.316406 123.328125 178.34375 122.191406 178.285156 C 121.054688 178.222656 120.074219 179.101562 119.996094 180.238281"/><path style="stroke:none;fill-rule:nonzero;fill:#fff;fill-opacity:1" d="M 81.386719 174.835938 C 81.269531 176.550781 82.558594 178.011719 84.265625 178.101562 C 85.96875 178.195312 87.441406 176.875 87.5625 175.164062 C 87.675781 173.449219 86.386719 171.988281 84.683594 171.898438 C 82.980469 171.804688 81.5 173.121094 81.386719 174.835938"/><path style="stroke:none;fill-rule:nonzero;fill:#fff;fill-opacity:1" d="M 77.265625 179.046875 C 77.1875 180.1875 78.046875 181.164062 79.179688 181.222656 C 80.316406 181.28125 81.296875 180.40625 81.375 179.265625 C 81.453125 178.125 80.59375 177.152344 79.460938 177.089844 C 78.328125 177.03125 77.34375 177.90625 77.265625 179.046875"/><path style="stroke:none;fill-rule:nonzero;fill:#340f0a;fill-opacity:1" d="M 39.777344 214.125 C 43.902344 213.089844 48.082031 215.601562 49.117188 219.730469 C 50.148438 223.859375 47.644531 228.046875 43.523438 229.082031 C 39.398438 230.117188 35.21875 227.605469 34.183594 223.480469 C 33.152344 219.347656 35.65625 215.160156 39.777344 214.125"/><path style="stroke:none;fill-rule:nonzero;fill:#14161d;fill-opacity:1" d="M 146.402344 186.410156 C 142.859375 191.238281 137.523438 193.683594 130.535156 193.671875 C 123.714844 193.660156 118.835938 191.328125 116.046875 186.726562 C 113.011719 181.726562 113.082031 175.15625 113.382812 171.75 C 113.511719 171.675781 113.636719 171.585938 113.753906 171.480469 L 113.941406 171.3125 C 113.941406 171.3125 114.039062 171.222656 114.226562 171.054688 C 114.457031 170.859375 114.820312 170.546875 115.320312 170.191406 C 115.808594 169.828125 116.441406 169.414062 117.179688 168.980469 C 117.921875 168.542969 118.785156 168.105469 119.738281 167.667969 C 120.222656 167.46875 120.730469 167.261719 121.25 167.046875 C 121.78125 166.863281 122.335938 166.675781 122.898438 166.480469 C 123.476562 166.320312 124.0625 166.15625 124.667969 165.988281 C 125.277344 165.859375 125.902344 165.726562 126.535156 165.59375 C 127.175781 165.496094 127.828125 165.398438 128.488281 165.300781 C 129.144531 165.21875 129.789062 165.1875 130.449219 165.125 L 130.949219 165.082031 L 131.488281 165.074219 C 131.847656 165.066406 132.214844 165.0625 132.574219 165.054688 L 133.121094 165.042969 L 133.394531 165.039062 L 133.589844 165.046875 L 134.628906 165.09375 C 135.320312 165.121094 136.015625 165.152344 136.699219 165.242188 C 137.386719 165.328125 138.074219 165.363281 138.75 165.496094 C 139.425781 165.617188 140.101562 165.699219 140.757812 165.847656 C 141.417969 166 142.070312 166.128906 142.707031 166.289062 C 143.34375 166.464844 143.964844 166.640625 144.578125 166.808594 C 145.183594 167.007812 145.777344 167.203125 146.351562 167.394531 C 146.921875 167.609375 147.476562 167.816406 148.015625 168.019531 C 148.546875 168.242188 149.058594 168.457031 149.554688 168.667969 C 150.039062 168.898438 150.503906 169.113281 150.945312 169.324219 C 151.054688 169.375 151.152344 169.425781 151.257812 169.480469 C 151.269531 171.351562 151.0625 180.066406 146.402344 186.410156 Z M 77.648438 193.601562 C 70.664062 193.597656 65.332031 191.140625 61.804688 186.300781 C 57.160156 179.949219 56.972656 171.230469 56.988281 169.359375 C 57.089844 169.308594 57.191406 169.253906 57.300781 169.203125 C 57.742188 168.996094 58.207031 168.78125 58.695312 168.554688 C 59.191406 168.34375 59.703125 168.132812 60.234375 167.910156 C 60.769531 167.707031 61.328125 167.496094 61.898438 167.285156 C 62.476562 167.09375 63.070312 166.902344 63.675781 166.707031 C 64.289062 166.535156 64.910156 166.363281 65.546875 166.191406 C 66.183594 166.03125 66.839844 165.902344 67.496094 165.753906 C 68.15625 165.609375 68.832031 165.527344 69.503906 165.40625 C 70.183594 165.277344 70.867188 165.242188 71.558594 165.160156 C 72.242188 165.070312 72.9375 165.039062 73.628906 165.015625 L 74.667969 164.972656 L 74.867188 164.964844 L 75.136719 164.96875 L 75.683594 164.980469 C 76.046875 164.988281 76.410156 164.996094 76.769531 165.003906 L 77.3125 165.015625 L 77.808594 165.058594 C 78.46875 165.121094 79.117188 165.15625 79.773438 165.238281 C 80.429688 165.339844 81.078125 165.4375 81.722656 165.535156 C 82.355469 165.671875 82.980469 165.804688 83.589844 165.9375 C 84.191406 166.105469 84.78125 166.269531 85.355469 166.429688 C 85.921875 166.625 86.46875 166.820312 87.003906 167 C 87.523438 167.21875 88.027344 167.425781 88.511719 167.628906 C 89.46875 168.066406 90.332031 168.507812 91.066406 168.945312 C 91.808594 169.382812 92.433594 169.796875 92.925781 170.164062 C 93.425781 170.519531 93.785156 170.832031 94.015625 171.03125 C 94.199219 171.199219 94.300781 171.285156 94.300781 171.285156 L 94.488281 171.457031 C 94.605469 171.5625 94.730469 171.652344 94.859375 171.726562 C 95.148438 175.132812 95.203125 181.703125 92.15625 186.695312 C 89.355469 191.289062 84.472656 193.613281 77.648438 193.601562 Z M 153.097656 180.734375 C 153.53125 179.164062 154.144531 177.660156 154.632812 176.117188 C 154.925781 175.1875 154.953125 173.90625 155.640625 173.296875 C 156.421875 172.605469 157.542969 173.191406 158.371094 172.566406 C 160.292969 171.117188 160.613281 167.351562 158.554688 165.863281 L 158.507812 165.832031 C 158.507812 165.832031 158.316406 165.703125 157.964844 165.460938 C 157.625 165.238281 157.132812 164.921875 156.511719 164.554688 C 155.890625 164.191406 155.132812 163.773438 154.257812 163.324219 C 153.820312 163.113281 153.351562 162.886719 152.859375 162.648438 C 152.363281 162.429688 151.84375 162.195312 151.296875 161.957031 C 150.746094 161.738281 150.175781 161.511719 149.582031 161.277344 C 148.984375 161.066406 148.367188 160.847656 147.734375 160.625 C 147.09375 160.433594 146.4375 160.234375 145.765625 160.03125 C 145.089844 159.859375 144.398438 159.683594 143.695312 159.507812 C 142.988281 159.34375 142.265625 159.214844 141.539062 159.066406 C 140.808594 158.925781 140.0625 158.847656 139.316406 158.730469 C 138.574219 158.605469 137.8125 158.582031 137.054688 158.507812 C 136.296875 158.425781 135.53125 158.410156 134.765625 158.398438 L 133.621094 158.375 L 133.273438 158.375 L 132.453125 158.410156 C 132.09375 158.425781 131.730469 158.441406 131.371094 158.453125 L 130.828125 158.476562 L 130.25 158.535156 C 129.480469 158.621094 128.707031 158.679688 127.960938 158.792969 C 127.226562 158.917969 126.5 159.046875 125.785156 159.171875 C 125.074219 159.339844 124.375 159.507812 123.691406 159.667969 C 123.011719 159.871094 122.34375 160.074219 121.699219 160.269531 C 121.054688 160.503906 120.433594 160.734375 119.828125 160.957031 C 119.230469 161.222656 118.652344 161.460938 118.101562 161.714844 C 117.003906 162.246094 116.007812 162.78125 115.140625 163.316406 C 114.269531 163.855469 113.523438 164.367188 112.917969 164.835938 C 112.304688 165.289062 111.832031 165.707031 111.5 166.007812 C 111.339844 166.144531 111.199219 166.289062 111.113281 166.371094 C 111 166.484375 110.941406 166.546875 110.941406 166.546875 C 110.269531 167.222656 109.964844 168.269531 110.050781 169.289062 C 110.039062 169.371094 110.023438 169.460938 110.011719 169.550781 C 108.898438 168.535156 107.125 167.582031 104.34375 167.425781 L 104.34375 167.398438 C 104.234375 167.398438 104.140625 167.410156 104.035156 167.414062 C 103.929688 167.410156 103.835938 167.398438 103.726562 167.398438 L 103.726562 167.425781 C 101.074219 167.566406 99.339844 168.433594 98.214844 169.394531 L 98.199219 169.273438 C 98.285156 168.257812 97.980469 167.207031 97.3125 166.527344 C 97.3125 166.527344 97.253906 166.46875 97.140625 166.351562 C 97.054688 166.273438 96.914062 166.125 96.753906 165.984375 C 96.421875 165.6875 95.953125 165.269531 95.34375 164.816406 C 94.738281 164.34375 93.992188 163.828125 93.125 163.289062 C 92.257812 162.75 91.261719 162.214844 90.164062 161.679688 C 89.617188 161.421875 89.035156 161.183594 88.441406 160.917969 C 87.835938 160.695312 87.214844 160.460938 86.574219 160.226562 C 85.925781 160.027344 85.261719 159.824219 84.582031 159.617188 C 83.898438 159.453125 83.199219 159.285156 82.488281 159.117188 C 81.773438 158.988281 81.046875 158.859375 80.308594 158.730469 C 79.566406 158.621094 78.792969 158.554688 78.023438 158.46875 L 77.445312 158.410156 L 76.90625 158.386719 C 76.546875 158.367188 76.183594 158.351562 75.820312 158.335938 L 75.277344 158.3125 L 75.003906 158.300781 L 74.65625 158.300781 L 73.511719 158.324219 C 72.746094 158.328125 71.980469 158.34375 71.222656 158.425781 C 70.464844 158.496094 69.703125 158.519531 68.957031 158.644531 C 68.207031 158.757812 67.464844 158.832031 66.734375 158.972656 C 66.003906 159.117188 65.28125 159.246094 64.578125 159.40625 C 63.875 159.582031 63.179688 159.753906 62.503906 159.925781 C 61.832031 160.128906 61.175781 160.324219 60.535156 160.515625 C 59.898438 160.734375 59.28125 160.953125 58.683594 161.160156 C 58.09375 161.394531 57.519531 161.621094 56.96875 161.835938 C 56.421875 162.074219 55.902344 162.304688 55.40625 162.523438 C 54.910156 162.761719 54.441406 162.988281 54.003906 163.199219 C 53.128906 163.644531 52.371094 164.058594 51.746094 164.417969 C 51.125 164.789062 50.628906 165.097656 50.292969 165.320312 C 49.9375 165.5625 49.75 165.691406 49.75 165.691406 L 49.703125 165.726562 C 47.636719 167.210938 47.953125 170.972656 49.867188 172.425781 C 50.691406 173.054688 51.816406 172.472656 52.597656 173.167969 C 53.28125 173.777344 53.304688 175.058594 53.597656 175.988281 C 54.082031 177.53125 54.691406 179.035156 55.117188 180.605469 C 56.003906 183.871094 57.332031 186.898438 59.167969 189.425781 C 63.402344 195.25 69.617188 198.210938 77.644531 198.21875 C 85.617188 198.230469 91.449219 195.3125 94.960938 189.550781 C 97.558594 185.292969 98.386719 180.296875 98.535156 176.214844 C 99.394531 174.832031 101.425781 172.066406 104.03125 171.832031 C 106.859375 172.09375 109 175.339844 109.707031 176.554688 C 109.878906 180.574219 110.714844 185.425781 113.234375 189.574219 C 116.734375 195.34375 122.554688 198.277344 130.53125 198.289062 C 138.554688 198.296875 144.777344 195.351562 149.027344 189.542969 C 150.871094 187.015625 152.203125 183.996094 153.097656 180.734375"/><path style="stroke:none;fill-rule:nonzero;fill:#3c4661;fill-opacity:1" d="M 130.980469 159.515625 C 130.9375 159.515625 128.121094 159.679688 124.296875 160.753906 C 120.480469 161.820312 115.644531 163.792969 111.605469 167.460938 L 112.769531 168.75 C 116.523438 165.339844 121.113281 163.449219 124.765625 162.429688 C 126.59375 161.917969 128.183594 161.621094 129.308594 161.457031 C 129.875 161.371094 130.324219 161.320312 130.628906 161.289062 C 130.78125 161.273438 130.894531 161.265625 130.972656 161.261719 L 131.058594 161.253906 L 131.082031 161.25 L 130.980469 159.515625"/><path style="stroke:none;fill-rule:nonzero;fill:#3c4661;fill-opacity:1" d="M 77.1875 161.183594 L 77.210938 161.183594 C 77.496094 161.203125 80.25 161.421875 83.84375 162.476562 C 87.4375 163.523438 91.847656 165.414062 95.476562 168.726562 L 96.648438 167.4375 C 92.613281 163.761719 87.785156 161.777344 83.972656 160.699219 C 80.152344 159.621094 77.335938 159.445312 77.292969 159.445312 L 77.1875 161.183594"/><g clip-path="url(#clip2)" clip-rule="nonzero"><path style="stroke:none;fill-rule:nonzero;fill:#4c8bd1;fill-opacity:1" d="M 94.847656 77.671875 C 94.847656 69.929688 88.585938 63.660156 80.859375 63.660156 C 80.257812 63.660156 79.667969 63.699219 79.085938 63.777344 L 79.085938 63.660156 L 44.949219 63.660156 L 44.949219 63.683594 C 37.617188 64.121094 31.800781 70.214844 31.800781 77.671875 L 31.800781 132.878906 C 31.800781 140.335938 37.617188 146.425781 44.949219 146.859375 L 44.949219 146.886719 L 52.1875 146.886719 L 69.898438 155.667969 L 64.320312 146.886719 L 79.085938 146.886719 L 79.085938 146.773438 C 79.667969 146.84375 80.257812 146.886719 80.859375 146.886719 C 88.585938 146.886719 94.847656 140.617188 94.847656 132.878906 L 94.847656 77.671875"/></g><path style="stroke:none;fill-rule:nonzero;fill:#91dcf8;fill-opacity:1" d="M 42.425781 83.734375 L 85.851562 83.734375 C 86.773438 83.734375 87.523438 82.984375 87.523438 82.058594 C 87.523438 81.136719 86.773438 80.386719 85.851562 80.386719 L 42.425781 80.386719 C 41.503906 80.386719 40.757812 81.136719 40.757812 82.058594 C 40.757812 82.984375 41.503906 83.734375 42.425781 83.734375"/><path style="stroke:none;fill-rule:nonzero;fill:#91dcf8;fill-opacity:1" d="M 42.425781 95.625 L 85.851562 95.625 C 86.773438 95.625 87.523438 94.871094 87.523438 93.949219 C 87.523438 93.027344 86.773438 92.277344 85.851562 92.277344 L 42.425781 92.277344 C 41.503906 92.277344 40.757812 93.027344 40.757812 93.949219 C 40.757812 94.871094 41.503906 95.625 42.425781 95.625"/><path style="stroke:none;fill-rule:nonzero;fill:#91dcf8;fill-opacity:1" d="M 42.425781 107.511719 L 85.851562 107.511719 C 86.773438 107.511719 87.523438 106.761719 87.523438 105.839844 C 87.523438 104.914062 86.773438 104.167969 85.851562 104.167969 L 42.425781 104.167969 C 41.503906 104.167969 40.757812 104.914062 40.757812 105.839844 C 40.757812 106.761719 41.503906 107.511719 42.425781 107.511719"/><path style="stroke:none;fill-rule:nonzero;fill:#91dcf8;fill-opacity:1" d="M 42.425781 119.398438 L 85.851562 119.398438 C 86.773438 119.398438 87.523438 118.652344 87.523438 117.726562 C 87.523438 116.800781 86.773438 116.054688 85.851562 116.054688 L 42.425781 116.054688 C 41.503906 116.054688 40.757812 116.800781 40.757812 117.726562 C 40.757812 118.652344 41.503906 119.398438 42.425781 119.398438"/><path style="stroke:none;fill-rule:nonzero;fill:#91dcf8;fill-opacity:1" d="M 42.425781 131.289062 L 85.851562 131.289062 C 86.773438 131.289062 87.523438 130.539062 87.523438 129.613281 C 87.523438 128.691406 86.773438 127.941406 85.851562 127.941406 L 42.425781 127.941406 C 41.503906 127.941406 40.757812 128.691406 40.757812 129.613281 C 40.757812 130.539062 41.503906 131.289062 42.425781 131.289062"/><g style="fill:#000;fill-opacity:1"><g><path style="stroke:none" transform="translate(173.226623, 180.862197)"/></g></g><g style="fill:#000;fill-opacity:1"><g><path style="stroke:none" transform="translate(173.070463, 154.475533)"/></g></g><g style="fill:#000;fill-opacity:1"><g><path style="stroke:none" transform="translate(172.715563, 194.388299)"/></g></g><g style="fill:#5271ff;fill-opacity:1"><g><path style="stroke:none" d="M 15.75 0 L 13.84375 -6.3125 L 5.078125 -6.3125 L 3.203125 0 L -1.203125 0 L 7.0625 -26.484375 L 11.890625 -26.484375 L 20.15625 0 Z M 6.1875 -10.03125 L 12.71875 -10.03125 L 9.484375 -20.9375 Z M 6.1875 -10.03125" transform="translate(208.742451, 170.09186)"/></g></g><g style="fill:#5271ff;fill-opacity:1"><g><path style="stroke:none" d="M 19.3125 -8.09375 C 18.988281 -6.800781 18.554688 -5.625 18.015625 -4.5625 C 17.472656 -3.507812 16.8125 -2.609375 16.03125 -1.859375 C 15.257812 -1.117188 14.351562 -0.546875 13.3125 -0.140625 C 12.28125 0.265625 11.097656 0.46875 9.765625 0.46875 C 7.910156 0.46875 6.335938 0.0859375 5.046875 -0.671875 C 3.765625 -1.441406 2.710938 -2.460938 1.890625 -3.734375 C 1.078125 -5.015625 0.488281 -6.476562 0.125 -8.125 C -0.226562 -9.769531 -0.40625 -11.476562 -0.40625 -13.25 C -0.40625 -15.019531 -0.226562 -16.726562 0.125 -18.375 C 0.488281 -20.03125 1.070312 -21.488281 1.875 -22.75 C 2.675781 -24.007812 3.695312 -25.019531 4.9375 -25.78125 C 6.1875 -26.550781 7.710938 -26.9375 9.515625 -26.9375 C 10.097656 -26.9375 10.6875 -26.859375 11.28125 -26.703125 C 11.875 -26.554688 12.425781 -26.332031 12.9375 -26.03125 C 13.457031 -25.726562 13.910156 -25.351562 14.296875 -24.90625 C 14.679688 -24.457031 14.957031 -23.941406 15.125 -23.359375 L 15.125 -26.484375 L 18.921875 -26.484375 L 18.921875 -16.453125 L 15.125 -16.453125 C 15.125 -17.285156 15.019531 -18.101562 14.8125 -18.90625 C 14.613281 -19.707031 14.289062 -20.421875 13.84375 -21.046875 C 13.394531 -21.671875 12.832031 -22.175781 12.15625 -22.5625 C 11.476562 -22.957031 10.679688 -23.15625 9.765625 -23.15625 C 8.566406 -23.15625 7.585938 -22.863281 6.828125 -22.28125 C 6.078125 -21.695312 5.472656 -20.929688 5.015625 -19.984375 C 4.554688 -19.035156 4.234375 -17.972656 4.046875 -16.796875 C 3.867188 -15.617188 3.78125 -14.4375 3.78125 -13.25 C 3.78125 -12.0625 3.867188 -10.867188 4.046875 -9.671875 C 4.234375 -8.484375 4.546875 -7.421875 4.984375 -6.484375 C 5.429688 -5.546875 6.039062 -4.785156 6.8125 -4.203125 C 7.582031 -3.617188 8.566406 -3.328125 9.765625 -3.328125 C 11.484375 -3.328125 12.804688 -3.875 13.734375 -4.96875 C 14.660156 -6.0625 15.398438 -7.535156 15.953125 -9.390625 Z M 19.3125 -8.09375" transform="translate(239.741169, 170.09186)"/></g></g><g style="fill:#5271ff;fill-opacity:1"><g><path style="stroke:none" d="M 17.921875 0 L 1 0 L 1 -26.484375 L 17.921875 -26.484375 L 17.921875 -22.6875 L 5.203125 -22.6875 L 5.203125 -15.390625 L 15.125 -15.390625 L 15.125 -11.59375 L 5.203125 -11.59375 L 5.203125 -3.78125 L 17.921875 -3.78125 Z M 17.921875 0" transform="translate(270.739887, 170.09186)"/></g></g><g style="fill:#5271ff;fill-opacity:1"><g><path style="stroke:none" transform="translate(301.730726, 170.09186)"/></g></g><g style="fill:#000;fill-opacity:1"><g><path style="stroke:none" transform="translate(253.816199, 213.143944)"/></g></g><g style="fill:#545454;fill-opacity:1"><g><path style="stroke:none" d="M 4.796875 -2.316406 L 4.796875 -22.496094 L 2.480469 -22.496094 L 2.480469 0 L 12.835938 0 L 12.835938 -2.316406 Z M 4.796875 -2.316406" transform="translate(204.585401, 207.215962)"/></g></g><g style="fill:#545454;fill-opacity:1"><g><path style="stroke:none" d="M 4.796875 0 L 4.796875 -22.496094 L 2.480469 -22.496094 L 2.480469 0 Z M 4.796875 0" transform="translate(218.08286, 207.215962)"/></g></g><g style="fill:#545454;fill-opacity:1"><g><path style="stroke:none" d="M 17.167969 -6.253906 C 17.167969 -7.839844 16.773438 -9.195312 16.011719 -10.253906 C 15.21875 -11.3125 14.160156 -12.042969 12.867188 -12.40625 C 13.628906 -12.738281 14.292969 -13.332031 14.789062 -14.226562 C 15.019531 -14.621094 15.183594 -15.019531 15.316406 -15.449219 C 15.449219 -15.878906 15.515625 -16.476562 15.515625 -17.234375 C 15.515625 -17.964844 15.316406 -18.726562 14.988281 -19.453125 C 13.992188 -21.46875 11.84375 -22.496094 8.570312 -22.496094 L 2.480469 -22.496094 L 2.480469 0 L 9.363281 0 C 11.644531 0 13.464844 -0.496094 14.855469 -1.554688 C 15.546875 -2.085938 16.109375 -2.777344 16.542969 -3.640625 C 16.9375 -4.464844 17.167969 -5.328125 17.167969 -6.253906 Z M 13.199219 -16.871094 C 13.199219 -15.648438 12.835938 -14.753906 12.109375 -14.160156 C 11.378906 -13.5625 10.421875 -13.265625 9.230469 -13.265625 L 4.796875 -13.265625 L 4.796875 -20.28125 L 8.570312 -20.28125 C 11.644531 -20.28125 13.199219 -19.121094 13.199219 -16.871094 Z M 14.855469 -6.714844 C 14.855469 -5.359375 14.390625 -4.269531 13.464844 -3.441406 C 12.570312 -2.613281 11.414062 -2.214844 10.023438 -2.214844 L 4.796875 -2.214844 L 4.796875 -10.949219 L 10.386719 -10.949219 C 11.546875 -10.949219 12.570312 -10.554688 13.464844 -9.757812 C 13.863281 -9.394531 14.191406 -8.964844 14.457031 -8.46875 C 14.722656 -7.941406 14.855469 -7.378906 14.855469 -6.714844 Z M 14.855469 -6.714844" transform="translate(225.360902, 207.215962)"/></g></g><g style="fill:#545454;fill-opacity:1"><g><path style="stroke:none" d="M 4.796875 -11.117188 L 4.796875 -20.28125 L 10.023438 -20.28125 C 11.378906 -20.28125 12.472656 -19.847656 13.300781 -18.988281 C 14.09375 -18.128906 14.523438 -17.070312 14.523438 -15.746094 C 14.523438 -14.425781 14.09375 -13.332031 13.234375 -12.4375 C 12.371094 -11.546875 11.3125 -11.117188 10.023438 -11.117188 Z M 16.839844 -15.714844 C 16.839844 -17.632812 16.109375 -19.285156 14.722656 -20.578125 C 13.367188 -21.835938 11.679688 -22.496094 9.691406 -22.496094 L 2.480469 -22.496094 L 2.480469 0 L 4.796875 0 L 4.796875 -8.898438 L 7.476562 -8.898438 L 14.09375 0 L 17.203125 0 L 10.253906 -8.898438 C 12.007812 -9 13.496094 -9.628906 14.722656 -10.785156 C 16.109375 -12.074219 16.839844 -13.730469 16.839844 -15.714844 Z M 16.839844 -15.714844" transform="translate(243.1921, 207.215962)"/></g></g><g style="fill:#545454;fill-opacity:1"><g><path style="stroke:none" d="M 6.121094 -8.269531 L 10.222656 -18.625 L 14.292969 -8.269531 Z M 20.082031 0 L 10.222656 -24.050781 L 0.332031 0 L 2.84375 0 L 5.261719 -6.121094 L 15.152344 -6.121094 L 17.566406 0 Z M 20.082031 0" transform="translate(261.188711, 207.215962)"/></g></g><g style="fill:#545454;fill-opacity:1"><g><path style="stroke:none" d="M 4.796875 -11.117188 L 4.796875 -20.28125 L 10.023438 -20.28125 C 11.378906 -20.28125 12.472656 -19.847656 13.300781 -18.988281 C 14.09375 -18.128906 14.523438 -17.070312 14.523438 -15.746094 C 14.523438 -14.425781 14.09375 -13.332031 13.234375 -12.4375 C 12.371094 -11.546875 11.3125 -11.117188 10.023438 -11.117188 Z M 16.839844 -15.714844 C 16.839844 -17.632812 16.109375 -19.285156 14.722656 -20.578125 C 13.367188 -21.835938 11.679688 -22.496094 9.691406 -22.496094 L 2.480469 -22.496094 L 2.480469 0 L 4.796875 0 L 4.796875 -8.898438 L 7.476562 -8.898438 L 14.09375 0 L 17.203125 0 L 10.253906 -8.898438 C 12.007812 -9 13.496094 -9.628906 14.722656 -10.785156 C 16.109375 -12.074219 16.839844 -13.730469 16.839844 -15.714844 Z M 16.839844 -15.714844" transform="translate(281.600312, 207.215962)"/></g></g><g style="fill:#545454;fill-opacity:1"><g><path style="stroke:none" d="M 11.183594 -10.585938 L 19.683594 -22.496094 L 16.738281 -22.496094 L 10.023438 -12.867188 L 3.308594 -22.496094 L 0.332031 -22.496094 L 8.867188 -10.554688 L 8.867188 0 L 11.183594 0 Z M 11.183594 -10.585938" transform="translate(299.596923, 207.215962)"/></g></g></g></svg>