<svg xmlns="http://www.w3.org/2000/svg" viewBox="0 0 500 500"><g id="freepik--background-simple--inject-6"><path d="M434.05,135.93c31.25,61.91,23.44,120.84-33.7,155.07-39.06,23.4-82.49-13.75-107.48-2.39C262.33,302.49,281.71,362,240,387.38,193.11,416,126.76,401.71,87.7,362,44,317.6,50.26,242.3,76,216.35c24.66-24.88,95.67-11.42,126.45-28.16,29.09-15.81,27.19-64.54,75.37-103.89C309.66,58.27,392.35,53.33,434.05,135.93Z" style="fill:#407BFF"></path><path d="M434.05,135.93c31.25,61.91,23.44,120.84-33.7,155.07-39.06,23.4-82.49-13.75-107.48-2.39C262.33,302.49,281.71,362,240,387.38,193.11,416,126.76,401.71,87.7,362,44,317.6,50.26,242.3,76,216.35c24.66-24.88,95.67-11.42,126.45-28.16,29.09-15.81,27.19-64.54,75.37-103.89C309.66,58.27,392.35,53.33,434.05,135.93Z" style="fill:#fff;opacity:0.9"></path></g><g id="freepik--Shadow--inject-6"><ellipse id="freepik--path--inject-6" cx="245.18" cy="412.39" rx="193.89" ry="11.32" style="fill:#f5f5f5"></ellipse></g><g id="freepik--character-2--inject-6"><path d="M415.54,340.74h5.61l9.63,65.4c.24,1.68-1.06,2.34-2.75,2.34h0c-1.38,0-2.54-.17-2.75-1.53Z" style="fill:#263238"></path><path d="M415.54,340.74h5.61l9.63,65.4c.24,1.68-1.06,2.34-2.75,2.34h0c-1.38,0-2.54-.17-2.75-1.53Z" style="fill:#fff;opacity:0.2"></path><path d="M397.76,340.74h5.61l4.83,65.58c.12,1.62-1.16,2.16-2.79,2.16h0c-1.46,0-2.68-.29-2.79-1.75Z" style="fill:#263238"></path><path d="M397.76,340.74h5.61l4.83,65.58c.12,1.62-1.16,2.16-2.79,2.16h0c-1.46,0-2.68-.29-2.79-1.75Z" style="fill:#fff;opacity:0.2"></path><path d="M384.46,340.74h-5.61L374,406.32c-.12,1.62,1.17,2.16,2.79,2.16h0c1.47,0,2.68-.29,2.79-1.75Z" style="fill:#263238"></path><path d="M384.46,340.74h-5.61L374,406.32c-.12,1.62,1.17,2.16,2.79,2.16h0c1.47,0,2.68-.29,2.79-1.75Z" style="fill:#fff;opacity:0.2"></path><path d="M366.69,340.74h-5.61l-9.63,65.4c-.25,1.68,1.05,2.34,2.74,2.34h0c1.38,0,2.55-.17,2.75-1.53Z" style="fill:#263238"></path><path d="M366.69,340.74h-5.61l-9.63,65.4c-.25,1.68,1.05,2.34,2.74,2.34h0c1.38,0,2.55-.17,2.75-1.53Z" style="fill:#fff;opacity:0.2"></path><path d="M406.14,265.27l-23.38,71.32H433.9l8.84-75.14H411.42A5.55,5.55,0,0,0,406.14,265.27Z" style="fill:#263238"></path><path d="M406.14,265.27l-23.38,71.32H433.9l8.84-75.14H411.42A5.55,5.55,0,0,0,406.14,265.27Z" style="fill:#fff;opacity:0.2"></path><path d="M398.13,330.87H347.48a4.23,4.23,0,0,0-4.23,4.24v2.95a4.23,4.23,0,0,0,4.23,4.24h50.65Z" style="fill:#263238"></path><path d="M398.13,330.87H347.48a4.23,4.23,0,0,0-4.23,4.24v2.95a4.23,4.23,0,0,0,4.23,4.24h50.65Z" style="fill:#fff;opacity:0.1"></path><path d="M438.47,265.62l-6.6,57.29a9,9,0,0,1-8.93,8h-35.3a4.23,4.23,0,0,0-4.23,4.24v2.95a4.23,4.23,0,0,0,4.23,4.24h42.74a9,9,0,0,0,8.95-8.11l7.19-72.74h-3.37A4.71,4.71,0,0,0,438.47,265.62Z" style="fill:#263238"></path><path d="M438.47,265.62l-6.6,57.29a9,9,0,0,1-8.93,8h-35.3a4.23,4.23,0,0,0-4.23,4.24v2.95a4.23,4.23,0,0,0,4.23,4.24h42.74a9,9,0,0,0,8.95-8.11l7.19-72.74h-3.37A4.71,4.71,0,0,0,438.47,265.62Z" style="fill:#fff;opacity:0.30000000000000004"></path><polygon points="356.27 386.13 356.99 399.51 349.5 400.09 347.63 387.38 356.27 386.13" style="fill:#ff8b7b"></polygon><path d="M346.26,400.84a3.37,3.37,0,0,1-2.33-.45.71.71,0,0,1,0-.81,1,1,0,0,1,.56-.47c1.28-.44,4.1.94,4.23,1a.17.17,0,0,1,.1.18.19.19,0,0,1-.14.16A13.72,13.72,0,0,1,346.26,400.84Zm-1.33-1.44a1,1,0,0,0-.35.06.51.51,0,0,0-.35.29c-.12.23-.07.34,0,.4.39.49,2.36.38,3.8.1A8.38,8.38,0,0,0,344.93,399.4Z" style="fill:#407BFF"></path><path d="M348.61,400.46a.11.11,0,0,1-.08,0c-1-.35-2.94-1.93-2.83-2.82,0-.21.15-.48.65-.56a1.4,1.4,0,0,1,1,.25c1.05.75,1.39,2.85,1.41,2.94a.2.2,0,0,1-.07.18A.2.2,0,0,1,348.61,400.46Zm-2.11-3h-.11c-.33.05-.34.18-.35.23,0,.53,1.3,1.78,2.3,2.29a4.35,4.35,0,0,0-1.19-2.33,1,1,0,0,0-.65-.19Z" style="fill:#407BFF"></path><path d="M349.37,399.32l8.52-.54a.69.69,0,0,1,.7.5l2,6.83a1.14,1.14,0,0,1-.77,1.42,1,1,0,0,1-.24.05c-3.07.14-5.82.14-9.64.39-4.51.29-3.33.75-8.63,1.16-3.2.25-4-3.35-2.67-3.61,6.16-1.18,6.68-3.09,8.93-5.46A2.8,2.8,0,0,1,349.37,399.32Z" style="fill:#263238"></path><polygon points="347.63 387.38 348.56 393.72 356.65 393.13 356.27 386.13 356.27 386.13 347.63 387.38" style="fill:#263238;opacity:0.2"></polygon><path d="M387.51,302.56s-42.26,6.16-47.93,20,6.61,65.65,6.61,65.65l11.56-1s-.09-31.85-2.43-55.57l32.19-1.57L417.05,300Z" style="fill:#407BFF"></path><path d="M387.51,302.56s-42.26,6.16-47.93,20,6.61,65.65,6.61,65.65l11.56-1s-.09-31.85-2.43-55.57l32.19-1.57L417.05,300Z" style="opacity:0.5"></path><polygon points="345.4 387.56 358.48 386.13 358.48 389.72 346.12 390.8 345.4 387.56" style="fill:#407BFF"></polygon><polygon points="384.99 387.63 385.71 401.02 378.22 401.59 376.35 388.88 384.99 387.63" style="fill:#ff8b7b"></polygon><path d="M375,402.34a3.34,3.34,0,0,1-2.34-.45.71.71,0,0,1,0-.81,1,1,0,0,1,.55-.47c1.28-.44,4.1.95,4.23,1a.18.18,0,0,1,.1.19.21.21,0,0,1-.14.16A14.61,14.61,0,0,1,375,402.34Zm-1.34-1.44a1,1,0,0,0-.35.07.5.5,0,0,0-.35.28c-.12.24-.07.35,0,.4.39.49,2.36.38,3.81.11A8.59,8.59,0,0,0,373.65,400.9Z" style="fill:#407BFF"></path><path d="M377.33,402h-.08c-1-.35-2.94-1.93-2.83-2.81,0-.22.15-.48.66-.57a1.41,1.41,0,0,1,1.05.25c1,.76,1.38,2.85,1.4,2.95a.19.19,0,0,1-.07.17A.2.2,0,0,1,377.33,402Zm-2.11-3h-.1c-.34.05-.35.19-.36.24,0,.53,1.3,1.77,2.3,2.29a4.3,4.3,0,0,0-1.18-2.33,1,1,0,0,0-.66-.19Z" style="fill:#407BFF"></path><path d="M378.09,400.82l8.52-.54a.69.69,0,0,1,.7.5l2,6.83a1.15,1.15,0,0,1-.77,1.43l-.24,0c-3.07.14-5.81.14-9.64.39-4.51.29-3.33.76-8.63,1.17-3.2.24-4-3.36-2.67-3.62,6.16-1.17,6.68-3.09,8.94-5.46A2.75,2.75,0,0,1,378.09,400.82Z" style="fill:#263238"></path><polygon points="385.39 395.06 384.99 387.63 384.99 387.63 376.35 388.88 377.34 395.61 385.39 395.06" style="fill:#263238;opacity:0.2"></polygon><path d="M428.08,301.93s8.81,28.66-8.82,29.29-40.95,0-40.95,0,8.22,22.6,8.25,58.9l-11.08.94s-18.63-61.38-14.17-69.6c6-11,47.55-19.53,47.55-19.53Z" style="fill:#407BFF"></path><path d="M428.08,301.93s8.81,28.66-8.82,29.29-40.95,0-40.95,0,8.22,22.6,8.25,58.9l-11.08.94s-18.63-61.38-14.17-69.6c6-11,47.55-19.53,47.55-19.53Z" style="opacity:0.4"></path><polygon points="374.19 389.57 375.08 393.11 387.45 392.07 387.45 388.66 374.19 389.57" style="fill:#407BFF"></polygon><path d="M400.35,233.41s-10.78-2.35-15.75,14c-3,9.75-2.46,23.09-2.46,23.09l-17.83.35-2.21,7.24s23,.31,29-.47S400.35,233.41,400.35,233.41Z" style="fill:#407BFF"></path><path d="M388.39,302.29s-5.67-71.22,11.66-71.22h24.88c6,0,9.45,8.19,8.19,23s-2.52,51.34-2.52,51.34Z" style="fill:#407BFF"></path><path d="M388.39,302.29s-5.67-71.22,11.66-71.22h24.88c6,0,9.45,8.19,8.19,23s-2.52,51.34-2.52,51.34Z" style="fill:#fff;opacity:0.2"></path><path d="M361.28,269.3l2,.26a2.93,2.93,0,0,1,2.13,1.39l2.81,4.7a3.25,3.25,0,0,1,.37,2.51l-.45,1.77a3.3,3.3,0,0,1-4.48,2.23l-3.29-1.39a4.78,4.78,0,0,1-2.62-2.71l-.82-2.13a3.42,3.42,0,0,1,0-2.32l.69-2A3.41,3.41,0,0,1,361.28,269.3Z" style="fill:#ce7a63"></path><polygon points="362.74 270.56 368.88 284.73 378.33 288.35 390.93 282.06 390.86 267.73 384.37 266.78 379 269.41 376.09 272.21 372.27 267.37 367.31 266.78 364.12 268.2 362.74 270.56" style="fill:#407BFF"></polygon><polygon points="362.74 270.56 368.88 284.73 378.33 288.35 390.93 282.06 390.86 267.73 384.37 266.78 379 269.41 376.09 272.21 372.27 267.37 367.31 266.78 364.12 268.2 362.74 270.56" style="opacity:0.1"></polygon><polygon points="380.07 287.48 378.11 270.26 376.09 272.21 373.45 268.87 376.64 287.71 378.33 288.35 380.07 287.48" style="opacity:0.2"></polygon><path d="M362.27,268.2s8.66-8.82,14,2.36c0,0,9-10.55,14.58-2.83l-.72,2.83s-2.9-7-14.05,3.36c0,0-5.63-10.92-13.35-3.36Z" style="fill:#407BFF"></path><path d="M362.27,268.2s8.66-8.82,14,2.36c0,0,9-10.55,14.58-2.83l-.72,2.83s-2.9-7-14.05,3.36c0,0-5.63-10.92-13.35-3.36Z" style="fill:#fff;opacity:0.8"></path><path d="M407.17,271.81h-9.51l-2.5-2.32a4.47,4.47,0,0,0-4-1.11l-1.16.24a4.4,4.4,0,0,1-2.33-.15h0a4.51,4.51,0,0,0-5,1.52l-.18.24a4.48,4.48,0,0,0-.19,5.19l2.4,3.65A4.5,4.5,0,0,0,389.6,281l6.71-1.7,11.45,1.54Z" style="fill:#ce7a63"></path><path d="M423.35,248.39c-.74-4.47-3.78-17.32,4.41-17.32s9.53,12.6,10,20.39,1.92,31.62-3.53,31.64-28.83-1.87-28.83-1.87l.24-10.4,20.55-1.65S424.29,254.06,423.35,248.39Z" style="fill:#407BFF"></path><path d="M423.35,248.39c-.74-4.47-3.78-17.32,4.41-17.32s9.53,12.6,10,20.39,1.92,31.62-3.53,31.64-28.83-1.87-28.83-1.87l.24-10.4,20.55-1.65S424.29,254.06,423.35,248.39Z" style="fill:#fff;opacity:0.30000000000000004"></path><path d="M401.61,231.45l.15.64,5.2,3.31,10.1-3.82.13-.09c-3.9-3.94-2.44-11.17-1.14-17l-4.85,4L404.59,224a22.2,22.2,0,0,1,.45,2.69C405.35,229.57,404.56,230.55,401.61,231.45Z" style="fill:#ce7a63"></path><path d="M395.61,202.85s-5.63,3.78-4.24,6.09c2.25,3.73,5.43-2.54,5.43-2.54Z" style="fill:#263238"></path><path d="M413.57,223.83a14.15,14.15,0,0,0,.1-3.5l-8.8,5.12c.06.42.12.84.17,1.27a5.16,5.16,0,0,1-.21,2.59C408.07,229,412.61,227,413.57,223.83Z" style="opacity:0.2;isolation:isolate"></path><path d="M415.56,205.54c1,7.94,2,12.51-1.21,17.38-4.77,7.31-15,5.79-18.33-1.64-3-6.67-4.08-18.52,2.93-23.27a10.57,10.57,0,0,1,16.61,7.53Z" style="fill:#ce7a63"></path><path d="M404.09,212.39c.12.65-.12,1.23-.53,1.32s-.85-.35-1-1,.12-1.22.53-1.31S404,211.76,404.09,212.39Z" style="fill:#263238"></path><path d="M396.65,213.81c.12.63-.12,1.23-.54,1.31s-.84-.35-1-1,.12-1.23.53-1.32S396.53,213.17,396.65,213.81Z" style="fill:#263238"></path><path d="M399.56,211.71a24.34,24.34,0,0,1-1.65,5.26,3.45,3.45,0,0,0,2.78,0Z" style="fill:#ba4d3c"></path><path d="M405.74,207.7a.27.27,0,0,0,.17-.06.37.37,0,0,0,.1-.51v0a3.69,3.69,0,0,0-3-1.58.38.38,0,0,0-.35.4h0a.38.38,0,0,0,.4.36,2.85,2.85,0,0,1,2.39,1.25A.33.33,0,0,0,405.74,207.7Z" style="fill:#263238"></path><path d="M393.18,209.34a.38.38,0,0,0,.3-.19,3.16,3.16,0,0,1,2.27-1.62.39.39,0,0,0,.36-.41h0a.4.4,0,0,0-.41-.35h0a3.83,3.83,0,0,0-2.86,2,.36.36,0,0,0,.34.56Z" style="fill:#263238"></path><path d="M405.29,218.76a6.36,6.36,0,0,0,.82-1,.21.21,0,0,0-.05-.3h0a.22.22,0,0,0-.31.05,6,6,0,0,1-4.72,2.66.23.23,0,0,0-.24.22.23.23,0,0,0,.22.23A6.28,6.28,0,0,0,405.29,218.76Z" style="fill:#263238"></path><path d="M412.33,194s1.62-9-2.19-8.64S412.33,194,412.33,194Z" style="fill:#263238"></path><path d="M407.22,208.82a3.73,3.73,0,0,0-6.62,2l-2.05.5a3.74,3.74,0,1,0,.25,1.32,2.09,2.09,0,0,0,0-.34l1.86-.45a3.76,3.76,0,1,0,7.14-2.13c3.79-1.48,9.15-3.13,10.17-2.49l.54-.85C416.69,205.22,409.4,208,407.22,208.82ZM395,215.36a2.76,2.76,0,1,1,2.75-2.76A2.77,2.77,0,0,1,395,215.36Zm9.28-1.42a2.76,2.76,0,1,1,2.75-2.75A2.76,2.76,0,0,1,404.32,213.94Z" style="fill:#263238"></path><path d="M407.22,208.82a3.73,3.73,0,0,0-6.62,2l-2.05.5a3.74,3.74,0,1,0,.25,1.32,2.09,2.09,0,0,0,0-.34l1.86-.45a3.76,3.76,0,1,0,7.14-2.13c3.79-1.48,9.15-3.13,10.17-2.49l.54-.85C416.69,205.22,409.4,208,407.22,208.82ZM395,215.36a2.76,2.76,0,1,1,2.75-2.76A2.77,2.77,0,0,1,395,215.36Zm9.28-1.42a2.76,2.76,0,1,1,2.75-2.75A2.76,2.76,0,0,1,404.32,213.94Z" style="fill:#fff;opacity:0.2"></path><path d="M405.12,199.42s-12.57,8.88-15.25,5.19,2.91-4,2.91-4-4.76-3.35-2.24-6,5.57,0,5.57,0,11.54-10.05,15.47-2.51c0,0,8.75-1.74,9.36,5.33s0,8.16,0,8.16,4.63.57,4,2.18-4,.35-4,.35,5.47,4.14,3,4.71-8.91-.79-10.49-6.15.26-6.09.26-6.09S398.65,206.79,405.12,199.42Z" style="fill:#263238"></path><path d="M419.93,212.22a8.49,8.49,0,0,1-3.1,4.85c-2,1.48-3.53-.31-3.42-2.84.1-2.27,1.27-5.78,3.49-6.24S420.47,209.8,419.93,212.22Z" style="fill:#ce7a63"></path><path d="M402.7,231.07s-.95,2.6,4.36,2.68,10.21-3.15,10.21-3.15,2.13-.71,2.78.47c0,0-5.46,5.28-13,5.12s-6.37-5.22-6.37-5.22S402.06,230.6,402.7,231.07Z" style="fill:#407BFF"></path></g><g id="freepik--Bookshelf--inject-6"><rect x="107.59" y="103.81" width="122.03" height="307.45" style="fill:#407BFF"></rect><rect x="107.59" y="103.81" width="122.03" height="307.45" style="fill:#fff;opacity:0.2"></rect><path d="M229.62,101.12V414H252.1V101.12Z" style="fill:#407BFF"></path><path d="M229.62,101.12V414H252.1V101.12Z" style="fill:#fff;opacity:0.30000000000000004"></path><path d="M86.19,101.12V414h22.48V101.12Z" style="fill:#407BFF"></path><path d="M86.19,101.12V414h22.48V101.12Z" style="fill:#fff;opacity:0.4"></path><path d="M82.37,101.12V414h150V101.12Zm144.55,5.39v56.1H87.76v-56.1ZM87.76,285.58V229.49H226.92v56.09ZM226.92,291v56.09H87.76V291ZM87.76,224.1V168H226.92v56.1Zm0,184.46V352.47H226.92v56.09Z" style="fill:#407BFF"></path><path d="M82.37,101.12V414h150V101.12Zm144.55,5.39v56.1H87.76v-56.1ZM87.76,285.58V229.49H226.92v56.09ZM226.92,291v56.09H87.76V291ZM87.76,224.1V168H226.92v56.1Zm0,184.46V352.47H226.92v56.09Z" style="fill:#fff;opacity:0.6000000000000001"></path><rect x="175.81" y="119.08" width="5.19" height="43.53" transform="translate(356.8 281.69) rotate(180)" style="fill:#407BFF"></rect><rect x="175.81" y="119.08" width="5.19" height="43.53" transform="translate(356.8 281.69) rotate(180)" style="fill:#fff;opacity:0.1"></rect><rect x="180.99" y="119.08" width="5.19" height="43.53" transform="translate(367.17 281.69) rotate(180)" style="fill:#407BFF"></rect><rect x="180.99" y="119.08" width="5.19" height="43.53" transform="translate(367.17 281.69) rotate(180)" style="fill:#fff;opacity:0.4"></rect><rect x="165.43" y="122.14" width="10.37" height="40.47" transform="translate(341.24 284.74) rotate(180)" style="fill:#407BFF"></rect><rect x="165.43" y="122.14" width="10.37" height="40.47" transform="translate(341.24 284.74) rotate(180)" style="fill:#fff;opacity:0.6000000000000001"></rect><rect x="153.54" y="119.08" width="6.7" height="43.53" transform="translate(313.79 281.69) rotate(180)" style="fill:#407BFF"></rect><rect x="160.25" y="119.08" width="5.19" height="43.53" transform="translate(325.68 281.69) rotate(180)" style="fill:#407BFF"></rect><rect x="160.25" y="119.08" width="5.19" height="43.53" transform="translate(325.68 281.69) rotate(180)" style="fill:#fff;opacity:0.7000000000000001"></rect><rect x="114.2" y="119.08" width="6.7" height="43.53" transform="translate(235.11 281.69) rotate(180)" style="fill:#407BFF"></rect><rect x="114.2" y="119.08" width="6.7" height="43.53" transform="translate(235.11 281.69) rotate(180)" style="fill:#fff;opacity:0.7000000000000001"></rect><rect x="120.91" y="119.08" width="5.19" height="43.53" transform="translate(247 281.69) rotate(180)" style="fill:#407BFF"></rect><rect x="120.91" y="119.08" width="5.19" height="43.53" transform="translate(247 281.69) rotate(180)" style="fill:#fff;opacity:0.6000000000000001"></rect><rect x="136.47" y="119.08" width="6.7" height="43.53" transform="translate(279.64 281.69) rotate(180)" style="fill:#407BFF"></rect><rect x="136.47" y="119.08" width="6.7" height="43.53" transform="translate(279.64 281.69) rotate(180)" style="fill:#fff;opacity:0.6000000000000001"></rect><rect x="143.17" y="119.08" width="5.19" height="43.53" transform="translate(291.53 281.69) rotate(180)" style="fill:#407BFF"></rect><rect x="143.17" y="119.08" width="5.19" height="43.53" transform="translate(291.53 281.69) rotate(180)" style="opacity:0.1"></rect><rect x="103.83" y="120.11" width="10.37" height="42.5" transform="translate(218.03 282.72) rotate(180)" style="fill:#407BFF"></rect><rect x="103.83" y="120.11" width="10.37" height="42.5" transform="translate(218.03 282.72) rotate(180)" style="fill:#fff;opacity:0.1"></rect><rect x="98.64" y="120.11" width="5.19" height="42.5" transform="translate(202.47 282.72) rotate(180)" style="fill:#407BFF"></rect><rect x="98.64" y="120.11" width="5.19" height="42.5" transform="translate(202.47 282.72) rotate(180)" style="fill:#fff;opacity:0.6000000000000001"></rect><rect x="129.55" y="120.11" width="6.92" height="42.5" transform="translate(266.02 282.72) rotate(180)" style="fill:#407BFF"></rect><rect x="129.55" y="120.11" width="6.92" height="42.5" transform="translate(266.02 282.72) rotate(180)" style="fill:#fff;opacity:0.1"></rect><rect x="126.09" y="120.11" width="3.46" height="42.5" transform="translate(255.64 282.72) rotate(180)" style="fill:#407BFF"></rect><rect x="126.09" y="120.11" width="3.46" height="42.5" transform="translate(255.64 282.72) rotate(180)" style="fill:#fff;opacity:0.30000000000000004"></rect><rect x="143.17" y="122.14" width="10.37" height="40.47" transform="translate(296.71 284.74) rotate(180)" style="fill:#407BFF"></rect><rect x="143.17" y="122.14" width="10.37" height="40.47" transform="translate(296.71 284.74) rotate(180)" style="fill:#fff;opacity:0.1"></rect><rect x="201.74" y="119.08" width="6.7" height="43.53" transform="translate(410.18 281.69) rotate(180)" style="fill:#407BFF"></rect><rect x="201.74" y="119.08" width="6.7" height="43.53" transform="translate(410.18 281.69) rotate(180)" style="fill:#fff;opacity:0.30000000000000004"></rect><rect x="208.44" y="119.08" width="5.19" height="43.53" transform="translate(422.07 281.69) rotate(180)" style="fill:#407BFF"></rect><rect x="208.44" y="119.08" width="5.19" height="43.53" transform="translate(422.07 281.69) rotate(180)" style="fill:#fff;opacity:0.2"></rect><rect x="191.37" y="120.11" width="10.37" height="42.5" transform="translate(393.11 282.72) rotate(180)" style="fill:#407BFF"></rect><rect x="191.37" y="120.11" width="10.37" height="42.5" transform="translate(393.11 282.72) rotate(180)" style="fill:#fff;opacity:0.1"></rect><rect x="186.18" y="120.11" width="5.19" height="42.5" transform="translate(377.55 282.72) rotate(180)" style="fill:#407BFF"></rect><rect x="186.18" y="120.11" width="5.19" height="42.5" transform="translate(377.55 282.72) rotate(180)" style="fill:#fff;opacity:0.6000000000000001"></rect><rect x="217.09" y="120.11" width="6.92" height="42.5" transform="translate(441.09 282.72) rotate(180)" style="fill:#407BFF"></rect><rect x="217.09" y="120.11" width="6.92" height="42.5" transform="translate(441.09 282.72) rotate(180)" style="fill:#fff;opacity:0.1"></rect><rect x="213.63" y="120.11" width="3.46" height="42.5" transform="translate(430.72 282.72) rotate(180)" style="fill:#407BFF"></rect><rect x="213.63" y="120.11" width="3.46" height="42.5" transform="translate(430.72 282.72) rotate(180)" style="fill:#fff;opacity:0.6000000000000001"></rect><rect x="143.56" y="180.71" width="5.06" height="43.4" style="fill:#407BFF"></rect><rect x="143.56" y="180.71" width="5.06" height="43.4" style="fill:#fff;opacity:0.1"></rect><rect x="138.49" y="180.71" width="5.06" height="43.4" style="fill:#407BFF"></rect><rect x="138.49" y="180.71" width="5.06" height="43.4" style="fill:#fff;opacity:0.4"></rect><rect x="148.62" y="183.76" width="10.13" height="40.35" style="fill:#407BFF"></rect><rect x="148.62" y="183.76" width="10.13" height="40.35" style="fill:#fff;opacity:0.6000000000000001"></rect><rect x="163.81" y="180.71" width="6.54" height="43.4" style="fill:#407BFF"></rect><rect x="158.75" y="180.71" width="5.06" height="43.4" style="fill:#407BFF"></rect><rect x="158.75" y="180.71" width="5.06" height="43.4" style="opacity:0.1"></rect><rect x="202.22" y="180.71" width="6.54" height="43.4" style="fill:#407BFF"></rect><rect x="202.22" y="180.71" width="6.54" height="43.4" style="opacity:0.1"></rect><rect x="197.16" y="180.71" width="5.06" height="43.4" style="fill:#407BFF"></rect><rect x="197.16" y="180.71" width="5.06" height="43.4" style="fill:#fff;opacity:0.6000000000000001"></rect><rect x="180.48" y="180.71" width="6.54" height="43.4" style="fill:#407BFF"></rect><rect x="180.48" y="180.71" width="6.54" height="43.4" style="fill:#fff;opacity:0.6000000000000001"></rect><rect x="175.42" y="180.71" width="5.06" height="43.4" style="fill:#407BFF"></rect><rect x="175.42" y="180.71" width="5.06" height="43.4" style="opacity:0.1"></rect><rect x="208.76" y="181.74" width="10.13" height="42.37" style="fill:#407BFF"></rect><rect x="208.76" y="181.74" width="10.13" height="42.37" style="fill:#fff;opacity:0.1"></rect><rect x="218.89" y="181.74" width="5.06" height="42.37" style="fill:#407BFF"></rect><rect x="218.89" y="181.74" width="5.06" height="42.37" style="fill:#fff;opacity:0.6000000000000001"></rect><rect x="187.03" y="181.74" width="6.75" height="42.37" style="fill:#407BFF"></rect><rect x="187.03" y="181.74" width="6.75" height="42.37" style="fill:#fff;opacity:0.1"></rect><rect x="193.78" y="181.74" width="3.38" height="42.37" style="fill:#407BFF"></rect><rect x="193.78" y="181.74" width="3.38" height="42.37" style="fill:#fff;opacity:0.30000000000000004"></rect><rect x="170.36" y="183.76" width="10.13" height="40.35" style="fill:#407BFF"></rect><rect x="170.36" y="183.76" width="10.13" height="40.35" style="fill:#fff;opacity:0.1"></rect><rect x="116.76" y="180.71" width="6.54" height="43.4" style="fill:#407BFF"></rect><rect x="116.76" y="180.71" width="6.54" height="43.4" style="fill:#fff;opacity:0.1"></rect><rect x="111.69" y="180.71" width="5.06" height="43.4" style="fill:#407BFF"></rect><rect x="111.69" y="180.71" width="5.06" height="43.4" style="fill:#fff;opacity:0.2"></rect><rect x="123.3" y="181.74" width="10.13" height="42.37" style="fill:#407BFF"></rect><rect x="123.3" y="181.74" width="10.13" height="42.37" style="fill:#fff;opacity:0.1"></rect><rect x="133.43" y="181.74" width="5.06" height="42.37" style="fill:#407BFF"></rect><rect x="133.43" y="181.74" width="5.06" height="42.37" style="fill:#fff;opacity:0.6000000000000001"></rect><rect x="101.57" y="181.74" width="6.75" height="42.37" style="fill:#407BFF"></rect><rect x="101.57" y="181.74" width="6.75" height="42.37" style="fill:#fff;opacity:0.1"></rect><rect x="108.32" y="181.74" width="3.38" height="42.37" style="fill:#407BFF"></rect><rect x="108.32" y="181.74" width="3.38" height="42.37" style="fill:#fff;opacity:0.6000000000000001"></rect><rect x="176.87" y="304.1" width="5.06" height="42.97" transform="translate(358.8 651.18) rotate(180)" style="fill:#407BFF"></rect><rect x="176.87" y="304.1" width="5.06" height="42.97" transform="translate(358.8 651.18) rotate(180)" style="fill:#fff;opacity:0.1"></rect><rect x="181.93" y="304.1" width="5.06" height="42.97" transform="translate(368.93 651.18) rotate(180)" style="fill:#407BFF"></rect><rect x="181.93" y="304.1" width="5.06" height="42.97" transform="translate(368.93 651.18) rotate(180)" style="fill:#fff;opacity:0.4"></rect><rect x="166.74" y="307.12" width="10.13" height="39.95" transform="translate(343.61 654.2) rotate(180)" style="fill:#407BFF"></rect><rect x="166.74" y="307.12" width="10.13" height="39.95" transform="translate(343.61 654.2) rotate(180)" style="fill:#fff;opacity:0.6000000000000001"></rect><rect x="155.13" y="304.1" width="6.54" height="42.97" transform="translate(316.81 651.18) rotate(180)" style="fill:#407BFF"></rect><rect x="161.68" y="304.1" width="5.06" height="42.97" transform="translate(328.42 651.18) rotate(180)" style="fill:#407BFF"></rect><rect x="161.68" y="304.1" width="5.06" height="42.97" transform="translate(328.42 651.18) rotate(180)" style="fill:#fff;opacity:0.6000000000000001"></rect><rect x="116.72" y="304.1" width="6.54" height="42.97" transform="translate(239.99 651.18) rotate(180)" style="fill:#407BFF"></rect><rect x="116.72" y="304.1" width="6.54" height="42.97" transform="translate(239.99 651.18) rotate(180)" style="fill:#fff;opacity:0.30000000000000004"></rect><rect x="123.27" y="304.1" width="5.06" height="42.97" transform="translate(251.6 651.18) rotate(180)" style="fill:#407BFF"></rect><rect x="123.27" y="304.1" width="5.06" height="42.97" transform="translate(251.6 651.18) rotate(180)" style="fill:#fff;opacity:0.6000000000000001"></rect><rect x="138.46" y="304.1" width="6.54" height="42.97" transform="translate(283.46 651.18) rotate(180)" style="fill:#407BFF"></rect><rect x="138.46" y="304.1" width="6.54" height="42.97" transform="translate(283.46 651.18) rotate(180)" style="fill:#fff;opacity:0.6000000000000001"></rect><rect x="145" y="304.1" width="5.06" height="42.97" transform="translate(295.07 651.18) rotate(180)" style="fill:#407BFF"></rect><rect x="145" y="304.1" width="5.06" height="42.97" transform="translate(295.07 651.18) rotate(180)" style="opacity:0.1"></rect><rect x="106.6" y="305.12" width="10.13" height="41.96" transform="translate(223.32 652.2) rotate(180)" style="fill:#407BFF"></rect><rect x="106.6" y="305.12" width="10.13" height="41.96" transform="translate(223.32 652.2) rotate(180)" style="fill:#fff;opacity:0.1"></rect><rect x="101.53" y="305.12" width="5.06" height="41.96" transform="translate(208.13 652.2) rotate(180)" style="fill:#407BFF"></rect><rect x="101.53" y="305.12" width="5.06" height="41.96" transform="translate(208.13 652.2) rotate(180)" style="fill:#fff;opacity:0.6000000000000001"></rect><rect x="131.71" y="305.12" width="6.75" height="41.96" transform="translate(270.17 652.2) rotate(180)" style="fill:#407BFF"></rect><rect x="131.71" y="305.12" width="6.75" height="41.96" transform="translate(270.17 652.2) rotate(180)" style="fill:#fff;opacity:0.1"></rect><rect x="128.33" y="305.12" width="3.38" height="41.96" transform="translate(260.04 652.2) rotate(180)" style="fill:#407BFF"></rect><rect x="128.33" y="305.12" width="3.38" height="41.96" transform="translate(260.04 652.2) rotate(180)" style="fill:#fff;opacity:0.30000000000000004"></rect><rect x="145" y="307.12" width="10.13" height="39.95" transform="translate(300.14 654.2) rotate(180)" style="fill:#407BFF"></rect><rect x="145" y="307.12" width="10.13" height="39.95" transform="translate(300.14 654.2) rotate(180)" style="fill:#fff;opacity:0.1"></rect><rect x="202.19" y="304.1" width="6.54" height="42.97" transform="translate(410.92 651.18) rotate(180)" style="fill:#407BFF"></rect><rect x="202.19" y="304.1" width="6.54" height="42.97" transform="translate(410.92 651.18) rotate(180)" style="opacity:0.1"></rect><rect x="208.73" y="304.1" width="5.06" height="42.97" transform="translate(422.53 651.18) rotate(180)" style="fill:#407BFF"></rect><rect x="208.73" y="304.1" width="5.06" height="42.97" transform="translate(422.53 651.18) rotate(180)" style="fill:#fff;opacity:0.2"></rect><rect x="192.06" y="305.12" width="10.13" height="41.96" transform="translate(394.25 652.2) rotate(180)" style="fill:#407BFF"></rect><rect x="192.06" y="305.12" width="10.13" height="41.96" transform="translate(394.25 652.2) rotate(180)" style="fill:#fff;opacity:0.1"></rect><rect x="187" y="305.12" width="5.06" height="41.96" transform="translate(379.05 652.2) rotate(180)" style="fill:#407BFF"></rect><rect x="187" y="305.12" width="5.06" height="41.96" transform="translate(379.05 652.2) rotate(180)" style="fill:#fff;opacity:0.6000000000000001"></rect><rect x="217.17" y="305.12" width="6.75" height="41.96" transform="translate(441.09 652.2) rotate(180)" style="fill:#407BFF"></rect><rect x="217.17" y="305.12" width="6.75" height="41.96" transform="translate(441.09 652.2) rotate(180)" style="fill:#fff;opacity:0.1"></rect><rect x="213.8" y="305.12" width="3.38" height="41.96" transform="translate(430.97 652.2) rotate(180)" style="fill:#407BFF"></rect><rect x="213.8" y="305.12" width="3.38" height="41.96" transform="translate(430.97 652.2) rotate(180)" style="fill:#fff;opacity:0.6000000000000001"></rect><rect x="176.9" y="366.15" width="5.06" height="42.44" transform="translate(358.87 774.73) rotate(180)" style="fill:#407BFF"></rect><rect x="176.9" y="366.15" width="5.06" height="42.44" transform="translate(358.87 774.73) rotate(180)" style="fill:#fff;opacity:0.1"></rect><rect x="181.97" y="366.15" width="5.06" height="42.44" transform="translate(368.99 774.73) rotate(180)" style="fill:#407BFF"></rect><rect x="181.97" y="366.15" width="5.06" height="42.44" transform="translate(368.99 774.73) rotate(180)" style="fill:#fff;opacity:0.4"></rect><rect x="166.77" y="369.13" width="10.13" height="39.45" transform="translate(343.68 777.71) rotate(180)" style="fill:#407BFF"></rect><rect x="166.77" y="369.13" width="10.13" height="39.45" transform="translate(343.68 777.71) rotate(180)" style="fill:#fff;opacity:0.6000000000000001"></rect><rect x="155.17" y="366.15" width="6.54" height="42.44" transform="translate(316.88 774.73) rotate(180)" style="fill:#407BFF"></rect><rect x="161.71" y="366.15" width="5.06" height="42.44" transform="translate(328.48 774.73) rotate(180)" style="fill:#407BFF"></rect><rect x="161.71" y="366.15" width="5.06" height="42.44" transform="translate(328.48 774.73) rotate(180)" style="opacity:0.1"></rect><rect x="116.76" y="366.15" width="6.54" height="42.44" transform="translate(240.06 774.73) rotate(180)" style="fill:#407BFF"></rect><rect x="116.76" y="366.15" width="6.54" height="42.44" transform="translate(240.06 774.73) rotate(180)" style="fill:#fff;opacity:0.4"></rect><rect x="123.3" y="366.15" width="5.06" height="42.44" transform="translate(251.67 774.73) rotate(180)" style="fill:#407BFF"></rect><rect x="123.3" y="366.15" width="5.06" height="42.44" transform="translate(251.67 774.73) rotate(180)" style="fill:#fff;opacity:0.6000000000000001"></rect><rect x="138.49" y="366.15" width="6.54" height="42.44" transform="translate(283.53 774.73) rotate(180)" style="fill:#407BFF"></rect><rect x="138.49" y="366.15" width="6.54" height="42.44" transform="translate(283.53 774.73) rotate(180)" style="fill:#fff;opacity:0.6000000000000001"></rect><rect x="145.04" y="366.15" width="5.06" height="42.44" transform="translate(295.14 774.73) rotate(180)" style="fill:#407BFF"></rect><rect x="145.04" y="366.15" width="5.06" height="42.44" transform="translate(295.14 774.73) rotate(180)" style="opacity:0.1"></rect><rect x="106.63" y="367.15" width="10.13" height="41.43" transform="translate(223.39 775.74) rotate(180)" style="fill:#407BFF"></rect><rect x="106.63" y="367.15" width="10.13" height="41.43" transform="translate(223.39 775.74) rotate(180)" style="fill:#fff;opacity:0.1"></rect><rect x="101.57" y="367.15" width="5.06" height="41.43" transform="translate(208.2 775.74) rotate(180)" style="fill:#407BFF"></rect><rect x="101.57" y="367.15" width="5.06" height="41.43" transform="translate(208.2 775.74) rotate(180)" style="fill:#fff;opacity:0.6000000000000001"></rect><rect x="131.74" y="367.15" width="6.75" height="41.43" transform="translate(270.24 775.74) rotate(180)" style="fill:#407BFF"></rect><rect x="131.74" y="367.15" width="6.75" height="41.43" transform="translate(270.24 775.74) rotate(180)" style="fill:#fff;opacity:0.1"></rect><rect x="128.37" y="367.15" width="3.38" height="41.43" transform="translate(260.11 775.74) rotate(180)" style="fill:#407BFF"></rect><rect x="128.37" y="367.15" width="3.38" height="41.43" transform="translate(260.11 775.74) rotate(180)" style="fill:#fff;opacity:0.30000000000000004"></rect><rect x="145.04" y="369.13" width="10.13" height="39.45" transform="translate(300.2 777.71) rotate(180)" style="fill:#407BFF"></rect><rect x="145.04" y="369.13" width="10.13" height="39.45" transform="translate(300.2 777.71) rotate(180)" style="fill:#fff;opacity:0.1"></rect><rect x="202.22" y="366.15" width="6.54" height="42.44" transform="translate(410.99 774.73) rotate(180)" style="fill:#407BFF"></rect><rect x="202.22" y="366.15" width="6.54" height="42.44" transform="translate(410.99 774.73) rotate(180)" style="opacity:0.1"></rect><rect x="208.77" y="366.15" width="5.06" height="42.44" transform="translate(422.59 774.73) rotate(180)" style="fill:#407BFF"></rect><rect x="208.77" y="366.15" width="5.06" height="42.44" transform="translate(422.59 774.73) rotate(180)" style="fill:#fff;opacity:0.2"></rect><rect x="192.09" y="367.15" width="10.13" height="41.43" transform="translate(394.31 775.74) rotate(180)" style="fill:#407BFF"></rect><rect x="192.09" y="367.15" width="10.13" height="41.43" transform="translate(394.31 775.74) rotate(180)" style="fill:#fff;opacity:0.1"></rect><rect x="187.03" y="367.15" width="5.06" height="41.43" transform="translate(379.12 775.74) rotate(180)" style="fill:#407BFF"></rect><rect x="187.03" y="367.15" width="5.06" height="41.43" transform="translate(379.12 775.74) rotate(180)" style="fill:#fff;opacity:0.6000000000000001"></rect><rect x="217.2" y="367.15" width="6.75" height="41.43" transform="translate(441.16 775.74) rotate(180)" style="fill:#407BFF"></rect><rect x="217.2" y="367.15" width="6.75" height="41.43" transform="translate(441.16 775.74) rotate(180)" style="fill:#fff;opacity:0.1"></rect><rect x="213.83" y="367.15" width="3.38" height="41.43" transform="translate(431.03 775.74) rotate(180)" style="fill:#407BFF"></rect><rect x="213.83" y="367.15" width="3.38" height="41.43" transform="translate(431.03 775.74) rotate(180)" style="fill:#fff;opacity:0.6000000000000001"></rect><rect x="140.84" y="241.47" width="5.23" height="44.11" style="fill:#407BFF"></rect><rect x="140.84" y="241.47" width="5.23" height="44.11" style="fill:#fff;opacity:0.1"></rect><rect x="135.6" y="241.47" width="5.23" height="44.11" style="fill:#407BFF"></rect><rect x="135.6" y="241.47" width="5.23" height="44.11" style="fill:#fff;opacity:0.4"></rect><rect x="146.07" y="244.57" width="10.47" height="41.01" style="fill:#407BFF"></rect><rect x="146.07" y="244.57" width="10.47" height="41.01" style="fill:#fff;opacity:0.6000000000000001"></rect><rect x="161.78" y="241.47" width="6.77" height="44.11" style="fill:#407BFF"></rect><rect x="156.54" y="241.47" width="5.23" height="44.11" style="fill:#407BFF"></rect><rect x="156.54" y="241.47" width="5.23" height="44.11" style="opacity:0.1"></rect><rect x="201.49" y="241.47" width="6.77" height="44.11" style="fill:#407BFF"></rect><rect x="201.49" y="241.47" width="6.77" height="44.11" style="opacity:0.1"></rect><rect x="196.25" y="241.47" width="5.23" height="44.11" style="fill:#407BFF"></rect><rect x="196.25" y="241.47" width="5.23" height="44.11" style="fill:#fff;opacity:0.6000000000000001"></rect><rect x="179.01" y="241.47" width="6.77" height="44.11" style="fill:#407BFF"></rect><rect x="179.01" y="241.47" width="6.77" height="44.11" style="fill:#fff;opacity:0.6000000000000001"></rect><rect x="173.78" y="241.47" width="5.23" height="44.11" style="fill:#407BFF"></rect><rect x="173.78" y="241.47" width="5.23" height="44.11" style="opacity:0.1"></rect><rect x="208.25" y="242.52" width="10.47" height="43.07" style="fill:#407BFF"></rect><rect x="208.25" y="242.52" width="10.47" height="43.07" style="fill:#fff;opacity:0.1"></rect><rect x="218.72" y="242.52" width="5.23" height="43.07" style="fill:#407BFF"></rect><rect x="218.72" y="242.52" width="5.23" height="43.07" style="fill:#fff;opacity:0.6000000000000001"></rect><rect x="185.78" y="242.52" width="6.98" height="43.07" style="fill:#407BFF"></rect><rect x="185.78" y="242.52" width="6.98" height="43.07" style="fill:#fff;opacity:0.1"></rect><rect x="192.76" y="242.52" width="3.49" height="43.07" style="fill:#407BFF"></rect><rect x="192.76" y="242.52" width="3.49" height="43.07" style="fill:#fff;opacity:0.30000000000000004"></rect><rect x="168.54" y="244.57" width="10.47" height="41.01" style="fill:#407BFF"></rect><rect x="168.54" y="244.57" width="10.47" height="41.01" style="fill:#fff;opacity:0.1"></rect><rect x="113.13" y="241.47" width="6.77" height="44.11" style="fill:#407BFF"></rect><rect x="113.13" y="241.47" width="6.77" height="44.11" style="fill:#fff;opacity:0.2"></rect><rect x="107.9" y="241.47" width="5.23" height="44.11" style="fill:#407BFF"></rect><rect x="107.9" y="241.47" width="5.23" height="44.11" style="fill:#fff;opacity:0.2"></rect><rect x="119.9" y="242.52" width="10.47" height="43.07" style="fill:#407BFF"></rect><rect x="119.9" y="242.52" width="10.47" height="43.07" style="fill:#fff;opacity:0.1"></rect><rect x="130.37" y="242.52" width="5.23" height="43.07" style="fill:#407BFF"></rect><rect x="130.37" y="242.52" width="5.23" height="43.07" style="fill:#fff;opacity:0.6000000000000001"></rect><rect x="97.43" y="242.52" width="6.98" height="43.07" style="fill:#407BFF"></rect><rect x="97.43" y="242.52" width="6.98" height="43.07" style="fill:#fff;opacity:0.1"></rect><rect x="104.41" y="242.52" width="3.49" height="43.07" style="fill:#407BFF"></rect><rect x="104.41" y="242.52" width="3.49" height="43.07" style="fill:#fff;opacity:0.6000000000000001"></rect></g><g id="freepik--Sign--inject-6"><rect x="111.29" y="68.7" width="80.94" height="26.79" style="fill:#407BFF"></rect><rect x="112.79" y="54.95" width="1" height="13.75" style="fill:#407BFF"></rect><rect x="190.85" y="54.95" width="1" height="13.75" style="fill:#407BFF"></rect><g style="opacity:0.7000000000000001"><rect x="111.29" y="68.7" width="79.33" height="25.03" style="fill:#fff"></rect></g><rect x="124.98" y="73.53" width="56.34" height="4.87" style="fill:#407BFF"></rect><rect x="169.25" y="82.1" width="12.08" height="1.9" style="fill:#407BFF"></rect><rect x="157.09" y="87.69" width="24.24" height="1.9" style="fill:#407BFF"></rect></g><g id="freepik--character-1--inject-6"><path d="M93.66,413.91a2.56,2.56,0,0,0,3.15-2.55l0-4.94h64.46l0,3.89a3.87,3.87,0,0,0,3.19,3.6,2.56,2.56,0,0,0,3.15-2.55l-1.2-245.1a3.87,3.87,0,0,0-3.18-3.61,2.57,2.57,0,0,0-3.16,2.55l0,3.92H95.63l0-2.86a3.86,3.86,0,0,0-3.18-3.61,2.56,2.56,0,0,0-3.15,2.55l1.2,245.11A3.85,3.85,0,0,0,93.66,413.91ZM161,355H96.54l-.2-41.46H160.8ZM95.88,220.57h64.46l.21,41.47H96.08ZM160.57,267l.2,41.46H96.31L96.11,267Zm-.45-92.93.2,41.47H95.86l-.21-41.47ZM96.77,401.43,96.56,360H161l.2,41.47Z" style="opacity:0.2"></path><path d="M50.16,413.91a3.13,3.13,0,0,0,3.61-2.55l.85-4.94h64.46l-.67,3.89a3.12,3.12,0,0,0,6.16,1.05l42-245.1a3.12,3.12,0,1,0-6.15-1.06l-.67,3.92H95.3l.49-2.86a3.13,3.13,0,0,0-6.16-1.06l-42,245.11A3.11,3.11,0,0,0,50.16,413.91Zm77.74-59H63.44l7.11-41.46H135ZM86.47,220.57h64.47L143.83,262H79.37ZM143,267l-7.1,41.46H71.4L78.51,267Zm15.93-92.93-7.11,41.47H87.33l7.11-41.47ZM55.47,401.43,62.58,360H127l-7.1,41.47Z" style="fill:#263238"></path><path d="M50.16,413.91a3.13,3.13,0,0,0,3.61-2.55l.85-4.94h64.46l-.67,3.89a3.12,3.12,0,0,0,6.16,1.05l42-245.1a3.12,3.12,0,1,0-6.15-1.06l-.67,3.92H95.3l.49-2.86a3.13,3.13,0,0,0-6.16-1.06l-42,245.11A3.11,3.11,0,0,0,50.16,413.91Zm77.74-59H63.44l7.11-41.46H135ZM86.47,220.57h64.47L143.83,262H79.37ZM143,267l-7.1,41.46H71.4L78.51,267Zm15.93-92.93-7.11,41.47H87.33l7.11-41.47ZM55.47,401.43,62.58,360H127l-7.1,41.47Z" style="fill:#fff;opacity:0.2"></path><path d="M176.22,183.75H154.66a2,2,0,0,1-2-2h0V154.91h0a2,2,0,0,0,2,2h21.56Z" style="fill:#407BFF"></path><path d="M176.22,183.75H154.66a2,2,0,0,1-2-2h0V154.91h0a2,2,0,0,0,2,2h21.56Z" style="opacity:0.30000000000000004"></path><path d="M176.22,156.93H154.66a2,2,0,0,1-2-2h0a2,2,0,0,1,2-2h21.56Z" style="fill:#263238"></path><path d="M176.22,156.93H154.66a2,2,0,0,1-2-2h0a2,2,0,0,1,2-2h21.56Z" style="fill:#fff;opacity:0.5"></path><path d="M152.64,154.91a2,2,0,0,0,2,2h21.56v-.7H154.66a1.32,1.32,0,0,1,0-2.64h21.56v-.7H154.66A2,2,0,0,0,152.64,154.91Z" style="fill:#407BFF"></path><rect x="157.43" y="162.7" width="14.01" height="8.87" style="fill:#407BFF"></rect><rect x="157.43" y="162.7" width="14.01" height="8.87" style="fill:#fff;opacity:0.5"></rect><polygon points="49.11 320.5 44.25 334 51.74 336.9 57.59 324.45 49.11 320.5" style="fill:#ff8b7b"></polygon><path d="M52.51,337.55a.2.2,0,0,1,.07-.36c.14,0,3.46-.58,4.64.27a1,1,0,0,1,.42.65.75.75,0,0,1-.28.82,3.58,3.58,0,0,1-2.53-.26A14.16,14.16,0,0,1,52.51,337.55Zm.69,0c1.4.72,3.38,1.44,3.94,1.07.07,0,.16-.14.11-.42a.54.54,0,0,0-.27-.4,1.83,1.83,0,0,0-.34-.18A9.25,9.25,0,0,0,53.2,337.53Z" style="fill:#407BFF"></path><path d="M52.41,337.51a.21.21,0,0,1,0-.2c0-.1,1-2.14,2.35-2.59a1.48,1.48,0,0,1,1.15.07c.5.24.56.56.5.78-.16.94-2.68,1.95-3.77,2a.08.08,0,0,1-.08,0A.21.21,0,0,1,52.41,337.51Zm3.23-2.41a1,1,0,0,0-.73,0,4.73,4.73,0,0,0-1.94,2c1.19-.21,2.92-1.09,3.07-1.64,0-.05,0-.19-.29-.34l-.11,0Z" style="fill:#407BFF"></path><path d="M52.12,336.16,43.55,333a.73.73,0,0,0-.87.29l-4.14,6.4a1.22,1.22,0,0,0,.35,1.69,1,1,0,0,0,.23.12c3.11,1.09,5.92,1.95,9.76,3.38,4.54,1.69,3.18,1.8,8.49,3.86,3.2,1.23,5.14-2.2,3.85-2.89-5.95-3.1-5.9-5.22-7.47-8.35A3,3,0,0,0,52.12,336.16Z" style="fill:#263238"></path><polygon points="46.78 326.98 54.64 330.73 57.59 324.45 49.11 320.5 46.78 326.98" style="fill:#263238;opacity:0.2"></polygon><polygon points="93.93 333.43 95.22 347.72 103.24 347.18 103.28 333.43 93.93 333.43" style="fill:#ff8b7b"></polygon><path d="M104.62,346.94a.2.2,0,0,1-.16-.16.19.19,0,0,1,.09-.21c.12-.08,3-1.85,4.39-1.51a1,1,0,0,1,.64.44.74.74,0,0,1,0,.86,3.59,3.59,0,0,1-2.44.73A15.77,15.77,0,0,1,104.62,346.94Zm.64-.29c1.56.14,3.67.05,4-.51,0-.07.1-.19-.06-.43a.53.53,0,0,0-.4-.26,1.2,1.2,0,0,0-.38,0A9.27,9.27,0,0,0,105.26,346.65Z" style="fill:#407BFF"></path><path d="M104.52,346.93a.19.19,0,0,1-.1-.17c0-.11.15-2.37,1.19-3.29a1.49,1.49,0,0,1,1.09-.38c.55,0,.73.31.76.54.21.93-1.74,2.82-2.72,3.3h-.09A.2.2,0,0,1,104.52,346.93Zm2.06-3.46a1.09,1.09,0,0,0-.68.28,4.67,4.67,0,0,0-1,2.6c1-.65,2.29-2.11,2.21-2.68,0-.05,0-.19-.4-.21Z" style="fill:#407BFF"></path><path d="M103.73,345.8l-9.14.33a.73.73,0,0,0-.69.6l-1.39,7.49a1.22,1.22,0,0,0,1,1.43l.26,0c3.29-.18,6.21-.46,10.31-.6,4.84-.17,3.63.45,9.32.33,3.43-.08,3.92-4,2.46-4.14-6.68-.6-7.44-2.58-10.09-4.87A3,3,0,0,0,103.73,345.8Z" style="fill:#263238"></path><polygon points="103.28 333.43 93.93 333.43 94.61 340.89 103.26 340.65 103.28 333.43" style="fill:#263238;opacity:0.2"></polygon><path d="M87.05,201s-14.34,9.44-12,37.21l-2.39,31.46s-14.22,9.54-25.55,53.5a25.84,25.84,0,0,0,10,4.85l34.2-52.32L104,221.23l1.48-18.13Z" style="fill:#263238"></path><path d="M97.62,248.51l-5.16-20-8.22-4.05s0,39,3.69,56.4l3.37-5.16Z" style="opacity:0.4"></path><path d="M79.62,167.3S69.3,180.24,72.1,185.77s11.61,6.07,11.61,6.07A4.22,4.22,0,0,0,87,194.13l1.74-8a3.85,3.85,0,0,0-3.88.13l-5.77-3.5,7.95-10.53Z" style="fill:#ff8b7b"></path><path d="M94.34,158.37s-8,.3-12.3,3.94-5,5.8-5,5.8,2.85,4.14,11.34,6.38Z" style="fill:#407BFF"></path><path d="M88.39,174.49l3.21-8.7-3.45-3.54a25,25,0,0,0-3.91,10.84A30,30,0,0,0,88.39,174.49Z" style="opacity:0.1"></path><path d="M90.46,201S78.63,214,85.87,239.3L91,271.13s-6.48,30.31,1.48,66.34a37.46,37.46,0,0,0,12.06-.27l7.4-67.84,3.7-64.85Z" style="fill:#263238"></path><path d="M98.46,157.91s4.37-.44,4.3-8.47c0,0,4-1.85,6.64.53s-2.36,7.91.89,10.24C110.29,160.21,107.44,162.13,98.46,157.91Z" style="fill:#ff8b7b"></path><path d="M117.57,138.17c0-.54.36-.95.71-.93s.6.49.56,1-.35,1-.71.93S117.53,138.71,117.57,138.17Z" style="fill:#263238"></path><path d="M117.94,139.14l2.84,3.75a3.54,3.54,0,0,1-3.13.57Z" style="fill:#ff5652"></path><path d="M99,137.33c.32,6.8.32,9.69,3.7,13.22,5.2,3.62,13.39,3.43,15.1-3.33,1.54-6.09.75-16.17-5.87-19A9.3,9.3,0,0,0,99,137.33Z" style="fill:#ff8b7b"></path><path d="M116.56,136.58a.36.36,0,0,0,.3-.07,2.5,2.5,0,0,1,2.19-.61.3.3,0,0,0,.38-.22.31.31,0,0,0-.21-.39,3.14,3.14,0,0,0-2.78.74.3.3,0,0,0,0,.43v0A.34.34,0,0,0,116.56,136.58Z" style="fill:#263238"></path><path d="M118.15,137.27l1.48-.22S118.74,138.06,118.15,137.27Z" style="fill:#263238"></path><path d="M105.88,152.17a8.94,8.94,0,0,0,3.63,3.32c.22-.88.48-1.78.6-2.61A12.69,12.69,0,0,1,105.88,152.17Z" style="opacity:0.2"></path><path d="M111.13,141.27s4.09-4.38,2.44-8.71c0,0,4.66.55,4.37-3s-5.16-2.52-5.16-2.52,2.63-4.2.47-5.35-6,2.28-6,2.28-9.51-1.46-12.38,9.37-9.17,4.4-9.62,9.11c-.51,5.22,7,4.51,7,4.51a3.7,3.7,0,0,0,2.8,4.79,5.63,5.63,0,0,0,6.08-1.57s-.26,3.69,4,3.24c5-.51,3.92-3.77,4.35-5.46S111.89,144.54,111.13,141.27Z" style="fill:#263238"></path><path d="M107.32,124.84s-1.84-5.43,1.38-5.73S107.2,120.87,107.32,124.84Z" style="fill:#263238"></path><path d="M111.08,139.63a5.22,5.22,0,0,1,1.71,3.63c.08,1.85-1.68,2.36-3.2,1.51s-3.06-2.66-2.41-4.35A2.37,2.37,0,0,1,111.08,139.63Z" style="fill:#ff8b7b"></path><path d="M96.37,159.07s-1.52-6.47,8.19-3.64,8.9,8.36,8.9,8.36Z" style="fill:#407BFF"></path><path d="M96.37,159.07s-1.52-6.47,8.19-3.64,8.9,8.36,8.9,8.36Z" style="fill:#fff;opacity:0.5"></path><path d="M83.38,204.24s4.52-15.55,4.13-25.64-4-22.09,12.69-20.2,20.25,7.68,20.25,16.85-4.69,35.2-4.69,35.2S98.8,214.9,83.38,204.24Z" style="fill:#407BFF"></path><path d="M120.45,175.25a20.87,20.87,0,0,0-.75-6l-5.54-2.59L111,171.31s4.5,10.11,8.59,14.25A96.11,96.11,0,0,0,120.45,175.25Z" style="opacity:0.1"></path><path d="M126.21,171.29s5.42,5.4,7.63,7.57l16.84-4.64,1.45-4.36,2.53-.14,7.67-2.29,2.85,2.81-2.77,6L153.32,178s-14.81,8.18-20.24,7.66-12.56-7-12.56-7Z" style="fill:#ff8b7b"></path><path d="M112.69,161.49c4.66.68,9.42,4.38,16.82,10.93a22.69,22.69,0,0,1-7.82,9s-4.32-1.89-9.45-8.43C106,165.13,109.83,161.07,112.69,161.49Z" style="fill:#407BFF"></path></g><g id="freepik--Table--inject-6"><path d="M296.68,414h0c-1.59,0-2.86-.47-2.81-2l3.28-103.12h5.61l-3.28,103.29C299.43,413.6,298.19,414,296.68,414Z" style="fill:#263238"></path><path d="M296.68,414h0c-1.59,0-2.86-.47-2.81-2l3.28-103.12h5.61l-3.28,103.29C299.43,413.6,298.19,414,296.68,414Z" style="fill:#fff;opacity:0.2"></path><rect x="282" y="308.79" width="69.9" height="14.71" style="fill:#263238"></rect><rect x="282" y="308.79" width="69.9" height="14.71" style="fill:#fff;opacity:0.2"></rect><rect x="351.9" y="308.79" width="17.93" height="14.71" style="fill:#407BFF"></rect><rect x="351.9" y="308.79" width="17.93" height="14.71" style="fill:#263238"></rect><rect x="351.9" y="308.79" width="17.93" height="14.71" style="fill:#fff;opacity:0.2"></rect><path d="M375.54,414h0c1.6,0,2.88-.51,2.79-2.12l-5.72-103H367l5.74,103.36C372.82,413.64,374.05,414,375.54,414Z" style="fill:#263238"></path><path d="M375.54,414h0c1.6,0,2.88-.51,2.79-2.12l-5.72-103H367l5.74,103.36C372.82,413.64,374.05,414,375.54,414Z" style="fill:#fff;opacity:0.2"></path><path d="M355.13,414h0c1.58,0,2.85-.47,2.8-2l-3.28-103.12H349l3.28,103.29C352.37,413.6,353.61,414,355.13,414Z" style="fill:#263238"></path><path d="M355.13,414h0c1.58,0,2.85-.47,2.8-2l-3.28-103.12H349l3.28,103.29C352.37,413.6,353.61,414,355.13,414Z" style="fill:#fff;opacity:0.2"></path><path d="M276.27,414h0c-1.61,0-2.89-.51-2.8-2.12l5.73-103h5.61l-5.75,103.36C279,413.64,277.75,414,276.27,414Z" style="fill:#263238"></path><path d="M276.27,414h0c-1.61,0-2.89-.51-2.8-2.12l5.73-103h5.61l-5.75,103.36C279,413.64,277.75,414,276.27,414Z" style="fill:#fff;opacity:0.2"></path><path d="M259,304.15H392.75a2.68,2.68,0,0,1,2.68,2.68v3.9a2.69,2.69,0,0,1-2.69,2.69H259a2.68,2.68,0,0,1-2.68-2.68v-3.9a2.68,2.68,0,0,1,2.68-2.68Z" style="fill:#263238"></path><path d="M259,304.15H392.75a2.68,2.68,0,0,1,2.68,2.68v3.9a2.69,2.69,0,0,1-2.69,2.69H259a2.68,2.68,0,0,1-2.68-2.68v-3.9a2.68,2.68,0,0,1,2.68-2.68Z" style="fill:#fff;opacity:0.5"></path><path d="M331.89,275.43v7.39a.71.71,0,0,1,0,1.42c-2.82,0-5.64,0-8.46,0V274h8.46A.71.71,0,0,1,331.89,275.43Z" style="fill:#407BFF"></path><path d="M331.89,275.43v7.39a.71.71,0,0,1,0,1.42c-2.82,0-5.64,0-8.46,0V274h8.46A.71.71,0,0,1,331.89,275.43Z" style="fill:#fff;opacity:0.30000000000000004"></path><rect x="325.32" y="275.44" width="6.57" height="7.38" style="fill:#407BFF"></rect><rect x="325.32" y="275.44" width="6.57" height="7.38" style="fill:#fff;opacity:0.6000000000000001"></rect><path d="M326.7,274.72H290.43c-1.57,0-2.84,2-2.84,4.41s1.27,4.4,2.84,4.4H326.7Z" style="fill:#407BFF"></path><path d="M326.7,274.72H290.43c-1.57,0-2.84,2-2.84,4.41s1.27,4.4,2.84,4.4H326.7Z" style="fill:#fff;opacity:0.9"></path><path d="M326.7,284.24c-7.46,0-28.42.14-35.88,0-5.11-.09-5.38-9.88-.37-10.23,3.49-.24,7.08,0,10.58,0H326.7a.71.71,0,0,1,0,1.42H292c-1.64,0-2.81,0-3.44,1.95-.55,1.67-.37,5.08,1.87,5.44a4.82,4.82,0,0,0,.76,0H326.7a.71.71,0,0,1,0,1.42Z" style="fill:#407BFF"></path><g style="opacity:0.2"><path d="M326.7,284.24c-7.46,0-28.42.14-35.88,0-5.11-.09-5.38-9.88-.37-10.23,3.49-.24,7.08,0,10.58,0H326.7a.71.71,0,0,1,0,1.42H292c-1.64,0-2.81,0-3.44,1.95-.55,1.67-.37,5.08,1.87,5.44a4.82,4.82,0,0,0,.76,0H326.7a.71.71,0,0,1,0,1.42Z" style="fill:#fff"></path></g><path d="M330.63,285.41v6.85a.66.66,0,0,1,0,1.31l-7.84,0v-9.5h7.84A.66.66,0,0,1,330.63,285.41Z" style="fill:#407BFF"></path><path d="M330.63,285.41v6.85a.66.66,0,0,1,0,1.31l-7.84,0v-9.5h7.84A.66.66,0,0,1,330.63,285.41Z" style="fill:#fff;opacity:0.30000000000000004"></path><rect x="324.54" y="285.42" width="6.09" height="6.84" style="fill:#407BFF"></rect><rect x="324.54" y="285.42" width="6.09" height="6.84" style="fill:#fff;opacity:0.6000000000000001"></rect><path d="M325.82,284.75H292.23c-1.45,0-2.63,1.83-2.63,4.08s1.18,4.08,2.63,4.08h33.59Z" style="fill:#407BFF"></path><path d="M325.82,284.75H292.23c-1.45,0-2.63,1.83-2.63,4.08s1.18,4.08,2.63,4.08h33.59Z" style="fill:#fff;opacity:0.9"></path><path d="M325.82,293.57c-6.91,0-26.32.12-33.23,0-4.73-.09-5-9.15-.34-9.47,3.23-.22,6.56,0,9.8,0h23.77a.66.66,0,0,1,0,1.31H293.69c-1.52,0-2.6,0-3.19,1.8-.51,1.55-.35,4.71,1.73,5.05a5.61,5.61,0,0,0,.71,0h32.88a.66.66,0,0,1,0,1.31Z" style="fill:#407BFF"></path><path d="M334.53,295v8.15a.78.78,0,0,1,0,1.56c-3.1,0-6.21,0-9.32,0V293.45h9.32A.78.78,0,0,1,334.53,295Z" style="fill:#407BFF"></path><path d="M334.53,295v8.15a.78.78,0,0,1,0,1.56c-3.1,0-6.21,0-9.32,0V293.45h9.32A.78.78,0,0,1,334.53,295Z" style="fill:#fff;opacity:0.30000000000000004"></path><rect x="327.29" y="295.02" width="7.24" height="8.14" style="fill:#407BFF"></rect><rect x="327.29" y="295.02" width="7.24" height="8.14" style="fill:#fff;opacity:0.6000000000000001"></rect><path d="M328.81,294.23h-40c-1.72,0-3.12,2.17-3.12,4.85s1.4,4.86,3.12,4.86h40Z" style="fill:#407BFF"></path><path d="M328.81,294.23h-40c-1.72,0-3.12,2.17-3.12,4.85s1.4,4.86,3.12,4.86h40Z" style="fill:#fff;opacity:0.9"></path><path d="M328.81,304.72c-8.22,0-31.32.15-39.54,0-5.63-.1-5.93-10.89-.41-11.27,3.85-.26,7.81,0,11.66,0h28.29a.78.78,0,0,1,0,1.56H290.57c-1.8,0-3.09,0-3.79,2.15-.6,1.84-.41,5.59,2.05,6a6,6,0,0,0,.85,0h39.13a.78.78,0,0,1,0,1.56Z" style="fill:#407BFF"></path><g style="opacity:0.2"><path d="M328.81,304.72c-8.22,0-31.32.15-39.54,0-5.63-.1-5.93-10.89-.41-11.27,3.85-.26,7.81,0,11.66,0h28.29a.78.78,0,0,1,0,1.56H290.57c-1.8,0-3.09,0-3.79,2.15-.6,1.84-.41,5.59,2.05,6a6,6,0,0,0,.85,0h39.13a.78.78,0,0,1,0,1.56Z"></path></g></g></svg>